<?xml version="1.0" encoding="utf-8"?>
<!-- Generator: Adobe Illustrator 16.0.0, SVG Export Plug-In . SVG Version: 6.00 Build 0)  -->
<!DOCTYPE svg PUBLIC "-//W3C//DTD SVG 1.1//EN" "http://www.w3.org/Graphics/SVG/1.1/DTD/svg11.dtd">
<svg version="1.1" id="Layer_1" xmlns="http://www.w3.org/2000/svg" xmlns:xlink="http://www.w3.org/1999/xlink" x="0px" y="0px"
	 width="100px" height="100px" viewBox="0 0 100 100" enable-background="new 0 0 100 100" xml:space="preserve">
<g>
	<path d="M50,77.171c-2.636,0-4.772-2.136-4.772-4.772V27.6c0-2.635,2.137-4.771,4.772-4.772l0,0
		c2.636,0,4.771,2.136,4.771,4.772l0.001,44.798C54.771,75.033,52.634,77.171,50,77.171L50,77.171z"/>
	<path d="M22.829,50c0,2.637,2.136,4.772,4.772,4.772L72.4,54.773c2.635,0,4.771-2.137,4.771-4.773l0,0
		c0.001-2.635-2.136-4.772-4.771-4.772H27.601C24.966,45.228,22.829,47.365,22.829,50L22.829,50z"/>
</g>
<path d="M50,4.996C25.146,4.996,4.997,25.145,4.997,50c0,24.854,20.148,45.003,45.003,45.003
	c24.854,0,45.003-20.149,45.003-45.003C95.004,25.145,74.854,4.996,50,4.996z M50,86.003c-19.884,0-36.003-16.119-36.003-36.003
	S30.116,13.996,50,13.996S86.004,30.115,86.004,50S69.885,86.003,50,86.003z"/>
</svg>
