<?xml version="1.0" encoding="utf-8"?>
<!-- Generator: Adobe Illustrator 16.0.0, SVG Export Plug-In . SVG Version: 6.00 Build 0)  -->
<!DOCTYPE svg PUBLIC "-//W3C//DTD SVG 1.1//EN" "http://www.w3.org/Graphics/SVG/1.1/DTD/svg11.dtd">
<svg version="1.1" id="Layer_1" xmlns="http://www.w3.org/2000/svg" xmlns:xlink="http://www.w3.org/1999/xlink" x="0px" y="0px"
	 width="100px" height="100px" viewBox="0 0 100 100" enable-background="new 0 0 100 100" xml:space="preserve">
<g>
	<path d="M9.893,29.666c8.281,2.367,16.744,3.989,25.291,4.86c1.504,2.035,4.664,3.599,8.66,4.395v3.696
		c0,0.657,0.534,1.19,1.19,1.19h9.932c0.658,0,1.19-0.533,1.19-1.19v-3.696c3.996-0.796,7.156-2.359,8.66-4.395
		c8.547-0.871,17.01-2.494,25.291-4.86c0.402-0.116,0.715-0.434,0.822-0.84c0.107-0.407-0.007-0.839-0.303-1.137
		c-6.201-6.31-14.479-10.078-23.311-10.609c-0.202-0.011-0.403-0.016-0.605-0.015C63.887,10.412,57.282,6,50,6
		c-7.282,0-13.887,4.412-16.711,11.064c-0.202,0-0.404,0.005-0.606,0.016c-8.83,0.531-17.109,4.3-23.311,10.609
		c-0.294,0.298-0.409,0.73-0.303,1.137C9.177,29.232,9.489,29.55,9.893,29.666z M50,32.904c-11.189,0-22.327-1.309-33.197-3.892
		h66.395C72.326,31.596,61.188,32.904,50,32.904z M53.776,41.427h-7.553v-2.136c1.211,0.139,2.476,0.212,3.777,0.212
		c1.301,0,2.565-0.073,3.776-0.212V41.427L53.776,41.427z M50,37.125c-4.643,0-8.362-0.962-10.696-2.239
		c3.556,0.261,7.123,0.396,10.696,0.396s7.141-0.135,10.695-0.396C58.361,36.164,54.643,37.125,50,37.125z M50,8.379
		c6.105,0,11.665,3.571,14.252,9.015c-0.413,0.111-0.82,0.247-1.22,0.412c-4.153,1.722-8.536,2.596-13.032,2.596
		c-4.495,0-8.879-0.874-13.032-2.596c-0.399-0.165-0.807-0.301-1.219-0.412C38.335,11.95,43.894,8.379,50,8.379z M32.825,19.455
		c1.104-0.066,2.2,0.121,3.23,0.548c4.443,1.843,9.135,2.778,13.944,2.778s9.502-0.936,13.944-2.778
		c1.03-0.428,2.125-0.614,3.23-0.548c6.875,0.415,13.389,2.937,18.723,7.179H14.104C19.436,22.392,25.949,19.87,32.825,19.455z"/>
	<path d="M54.654,13.079c1.282,0.537,3.001,1.555,3.91,3.353c0.21,0.414,0.629,0.652,1.062,0.652c0.183,0,0.366-0.042,0.537-0.129
		c0.586-0.295,0.82-1.012,0.525-1.598c-1.238-2.442-3.465-3.78-5.115-4.471c-0.604-0.254-1.301,0.031-1.555,0.636
		C53.764,12.128,54.048,12.824,54.654,13.079z"/>
	<path d="M88.688,90.688L54.482,46.084c-0.399-0.521-1.145-0.621-1.668-0.223c-0.521,0.399-0.621,1.146-0.221,1.668l34.204,44.604
		c0.294,0.384,0.775,0.54,1.217,0.436c0.16-0.037,0.313-0.108,0.45-0.214C88.987,91.957,89.088,91.211,88.688,90.688z"/>
	<path d="M11.917,92.354c0.137,0.105,0.29,0.177,0.45,0.214c0.441,0.104,0.923-0.052,1.217-0.436l34.171-44.604
		c0.4-0.521,0.301-1.269-0.221-1.668c-0.523-0.398-1.269-0.298-1.668,0.223L11.694,90.687C11.293,91.21,11.394,91.956,11.917,92.354
		z"/>
	<path d="M62.9,71.069c-2.832-0.464-12.283-2.332-15.037-6.903c-0.037-0.059-0.073-0.114-0.111-0.172
		c0.429-0.374,0.541-1.009,0.237-1.511l-1.664-2.742c-0.352-0.578-1.118-0.753-1.686-0.369c-0.534,0.364-0.647,1.109-0.313,1.66
		l0.517,0.854c-0.259-0.069-0.525-0.115-0.793-0.142l-1.436-2.366c-0.322-0.531-0.998-0.771-1.558-0.501
		c-0.642,0.31-0.864,1.097-0.503,1.689l0.969,1.599c-0.419,0.189-0.813,0.436-1.167,0.738c-0.914,0.775-1.928,1.593-3.014,2.426
		c-0.192,0.146-0.352,0.342-0.428,0.572c-0.189,0.563,0.05,1.144,0.525,1.42c2.844,1.658,3.827,3.411,4.287,5.758
		c0.001,0.014,0.006,0.029,0.008,0.043c0.199,1.032,0.3,2.178,0.413,3.482c0.02,0.219,0.039,0.439,0.059,0.664
		c0.183,2.027-0.122,4.08-0.967,5.932c-0.811,1.777-1.76,2.743-1.787,2.771c-0.468,0.458-0.477,1.208-0.021,1.679
		c0.233,0.241,0.542,0.361,0.853,0.361c0.299,0,0.598-0.113,0.829-0.338c0.115-0.109,2.437-2.413,3.317-6.59
		c0.549,0.422,1.235,0.909,2.061,1.434c-0.149,2.146-1.624,5.348-2.235,6.494c-0.309,0.579-0.089,1.301,0.49,1.609
		c0.178,0.096,0.371,0.139,0.559,0.139c0.425,0,0.837-0.227,1.05-0.628c0.225-0.418,1.829-3.49,2.358-6.315
		c1.763,0.945,3.933,1.926,6.545,2.805c-0.806,1.537-2.507,2.861-3.203,3.301c-0.557,0.349-0.725,1.082-0.376,1.639
		c0.227,0.36,0.613,0.559,1.01,0.559c0.216,0,0.434-0.059,0.63-0.182c0.138-0.086,3.038-1.93,4.238-4.605
		c0.455,0.129,0.917,0.256,1.396,0.377c0.293,0.075,0.59,0.111,0.881,0.111l0,0c0.146,0,0.288-0.01,0.428-0.026
		c-0.79,3.122-2.41,5.024-2.432,5.049c-0.431,0.493-0.384,1.243,0.108,1.677c0.226,0.199,0.507,0.297,0.786,0.297
		c0.33,0,0.658-0.135,0.893-0.402c0.107-0.121,2.49-2.867,3.232-7.362c0-0.003,0.001-0.005,0.001-0.007
		c0.092-0.557,0.282-1.097,0.595-1.565c1.169-1.757,1.931-4.202,2.45-6.253c0.196-0.775,0.591-2.536,0.631-2.706
		c0.283-1.21,0.051-2.495-0.638-3.526C65.202,71.969,64.113,71.267,62.9,71.069z M62.51,82.031c-0.586-0.107-1.199-0.278-1.81-0.522
		c-1.149-0.458-2.173-1.112-2.806-1.795c-0.511-0.55-0.588-0.925-0.559-0.999c0.125-0.313,1.87-0.707,4.365,0.289
		c0.56,0.224,1.082,0.493,1.553,0.79C63.002,80.659,62.754,81.399,62.51,82.031z M52.314,70.522c1.187,0.545,2.57,1.066,4.182,1.543
		c-0.412,0.63-1.123,1.043-1.916,1.043c-1.263,0-2.288-1.027-2.288-2.288C52.292,70.72,52.302,70.62,52.314,70.522z M45.586,78.404
		c-0.261,0-0.513-0.025-0.752-0.074c-0.056-0.049-0.106-0.095-0.15-0.134c-0.064-0.621-0.116-1.217-0.167-1.797
		c-0.071-0.819-0.139-1.607-0.235-2.366c1.507,0.42,3.643,2.216,3.758,2.913C48.04,77.636,47.031,78.404,45.586,78.404z
		 M59.831,85.44c-0.093,0-0.192-0.014-0.295-0.039c-5.527-1.402-9.429-3.402-11.885-4.978c1.648-0.605,2.766-1.918,2.766-3.478
		c0-1.473-1.548-2.881-2.471-3.588c-0.537-0.413-2.397-1.736-4.13-1.79c-0.545-1.979-1.568-3.749-3.739-5.357
		c0.639-0.511,1.248-1.011,1.82-1.497c0.466-0.397,1.062-0.616,1.677-0.616c0.473,0,0.938,0.131,1.344,0.375
		c0.361,0.218,0.675,0.537,0.907,0.922c0.64,1.062,1.895,2.538,4.315,3.99c-0.147,0.462-0.227,0.943-0.227,1.436
		c0,2.573,2.094,4.665,4.667,4.665c1.887,0,3.545-1.137,4.273-2.795c1.127,0.266,2.343,0.51,3.661,0.727
		c0.575,0.094,1.069,0.414,1.394,0.896c0.329,0.494,0.435,1.083,0.3,1.66c-0.042,0.178-0.268,1.17-0.329,1.429
		c-0.412-0.224-0.847-0.429-1.296-0.608c-3.519-1.406-6.655-0.969-7.456,1.039c-0.249,0.627-0.449,1.913,1.022,3.5
		c0.879,0.947,2.183,1.795,3.671,2.385c0.535,0.215,1.075,0.387,1.61,0.518C60.822,85.152,60.277,85.44,59.831,85.44z"/>
</g>
</svg>
