<?xml version="1.0" encoding="utf-8"?>
<!-- Generator: Adobe Illustrator 16.0.0, SVG Export Plug-In . SVG Version: 6.00 Build 0)  -->
<!DOCTYPE svg PUBLIC "-//W3C//DTD SVG 1.1//EN" "http://www.w3.org/Graphics/SVG/1.1/DTD/svg11.dtd">
<svg version="1.1" id="Layer_1" xmlns="http://www.w3.org/2000/svg" xmlns:xlink="http://www.w3.org/1999/xlink" x="0px" y="0px"
	 width="100px" height="100px" viewBox="0 0 100 100" enable-background="new 0 0 100 100" xml:space="preserve">
<g>
	<path d="M28.916,67.547c-0.813,0.004-1.577,0.325-2.151,0.904c-0.571,0.577-0.885,1.345-0.881,2.157
		c0.007,1.672,1.375,3.033,3.046,3.033h0.015c0.814-0.006,1.578-0.325,2.15-0.904c0.573-0.577,0.886-1.345,0.882-2.159
		C31.968,68.907,30.601,67.547,28.916,67.547z M29.836,71.491c-0.24,0.243-0.56,0.378-0.9,0.378H28.93
		c-0.7,0-1.272-0.568-1.276-1.269c-0.001-0.342,0.13-0.663,0.37-0.903c0.239-0.243,0.56-0.378,0.907-0.38
		c0.7,0,1.272,0.57,1.275,1.271C30.207,70.93,30.076,71.249,29.836,71.491z"/>
	<path d="M54.383,67.547c-0.814,0.004-1.578,0.325-2.151,0.904c-0.572,0.577-0.886,1.345-0.882,2.157
		c0.009,1.672,1.374,3.033,3.047,3.033h0.015c0.813-0.006,1.578-0.325,2.151-0.904c0.571-0.577,0.885-1.345,0.881-2.159
		C57.436,68.907,56.069,67.547,54.383,67.547z M55.304,71.491c-0.24,0.243-0.561,0.378-0.9,0.378h-0.007
		c-0.699,0-1.272-0.568-1.275-1.269c-0.001-0.342,0.13-0.663,0.369-0.903c0.24-0.243,0.56-0.378,0.907-0.38
		c0.699,0,1.271,0.57,1.274,1.271C55.674,70.93,55.542,71.249,55.304,71.491z"/>
	<path d="M79.863,73.642h0.016c0.813-0.006,1.576-0.325,2.149-0.904c0.572-0.577,0.886-1.345,0.882-2.159
		c-0.008-1.671-1.375-3.031-3.062-3.031c-0.814,0.004-1.577,0.325-2.149,0.904c-0.573,0.577-0.887,1.345-0.883,2.157
		C76.825,72.28,78.192,73.642,79.863,73.642z M78.957,69.697c0.24-0.243,0.56-0.378,0.906-0.38c0.701,0,1.272,0.57,1.276,1.271
		c0.002,0.342-0.13,0.661-0.37,0.903c-0.239,0.243-0.559,0.378-0.9,0.378h-0.006c-0.7,0-1.271-0.568-1.275-1.269
		C78.586,70.259,78.717,69.938,78.957,69.697z"/>
	<path d="M72.324,60.185h7.495c0.224,0,0.427-0.086,0.583-0.224l0.007,0.007l14.718-13.236c0.187-0.168,0.293-0.408,0.293-0.659
		c0-0.251-0.106-0.49-0.293-0.659l-7.309-6.571c-0.336-0.303-0.847-0.303-1.185,0l-7.211,6.486h-5.495v-2.885
		c0-0.489-0.396-0.885-0.885-0.885h-8.646c-0.488,0-0.886,0.396-0.886,0.885v2.885H45.347c-0.334-2.221-1.867-4.053-3.913-4.818
		v-8.474h4.727c0.488,0,0.885-0.396,0.885-0.885v-10.33c0-0.489-0.397-0.886-0.885-0.886H32.434c-0.488,0-0.885,0.397-0.885,0.886
		v10.33c0,0.49,0.397,0.885,0.885,0.885h4.725v8.474c-2.045,0.77-3.578,2.604-3.911,4.818h-4.271c-0.489,0-0.885,0.397-0.885,0.886
		v8.024L20.252,59l-5.537-5.536c0.896-1.552,0.686-3.572-0.641-4.898l-3.497-3.495c-0.345-0.347-0.906-0.347-1.252,0
		c-0.346,0.346-0.346,0.907,0,1.252l3.496,3.497c0.892,0.891,0.892,2.343,0,3.235c-0.432,0.432-1.007,0.671-1.617,0.671
		c-0.612,0-1.185-0.239-1.619-0.671l-3.495-3.497c-0.347-0.345-0.907-0.345-1.252,0c-0.346,0.347-0.346,0.907,0,1.253l3.496,3.495
		c0.766,0.767,1.786,1.189,2.87,1.189c0.839,0,1.637-0.256,2.311-0.725l5.976,5.973c0.17,0.172,0.397,0.26,0.625,0.26
		c0.159,0,0.317-0.041,0.459-0.127l7.514-4.563v2.986c0,0.49,0.396,0.886,0.885,0.886h5.908l-3.797,2.04
		c-0.427-0.11-0.865-0.189-1.313-0.232c-0.009-0.481-0.401-0.87-0.885-0.87c-0.001,0-0.002,0-0.003,0
		c-0.486,0.002-0.876,0.395-0.881,0.878c-1.682,0.178-3.256,0.839-4.562,1.914c-0.348-0.332-0.9-0.328-1.241,0.016
		c-0.341,0.345-0.341,0.896-0.003,1.241c-1.063,1.315-1.71,2.897-1.872,4.58c-0.483,0.01-0.87,0.403-0.868,0.889
		c0.001,0.486,0.394,0.876,0.877,0.88c0.184,1.719,0.876,3.287,1.92,4.556c-0.34,0.348-0.336,0.903,0.009,1.247
		c0.173,0.17,0.397,0.256,0.624,0.256s0.452-0.086,0.625-0.259c1.278,1.032,2.853,1.709,4.573,1.877
		c0.009,0.481,0.401,0.868,0.884,0.868c0.002,0,0.003,0,0.004,0c0.485-0.002,0.875-0.395,0.881-0.876
		c1.681-0.18,3.256-0.841,4.561-1.916c0.171,0.164,0.392,0.248,0.612,0.248c0.228,0,0.456-0.088,0.629-0.264
		c0.34-0.343,0.34-0.896,0.002-1.239c1.064-1.317,1.71-2.897,1.872-4.582c0.483-0.009,0.871-0.403,0.868-0.887
		c-0.001-0.486-0.394-0.876-0.876-0.882c-0.185-1.717-0.877-3.285-1.921-4.554c0.34-0.349,0.336-0.905-0.009-1.247
		c-0.346-0.344-0.904-0.342-1.249,0.002c-0.355-0.288-0.735-0.546-1.134-0.775l5.418-2.908h23.346l-4.11,2.497
		c-0.818-0.36-1.7-0.6-2.624-0.689c-0.01-0.481-0.402-0.87-0.886-0.87c-0.001,0-0.003,0-0.004,0
		c-0.485,0.002-0.876,0.395-0.88,0.878c-1.683,0.178-3.257,0.839-4.562,1.914c-0.348-0.334-0.901-0.328-1.241,0.016
		c-0.342,0.344-0.341,0.896-0.003,1.241c-1.063,1.315-1.709,2.897-1.872,4.58c-0.482,0.01-0.87,0.403-0.869,0.889
		c0.003,0.484,0.394,0.876,0.878,0.88c0.185,1.719,0.876,3.287,1.92,4.556c-0.34,0.348-0.336,0.903,0.009,1.247
		c0.174,0.17,0.398,0.256,0.624,0.256s0.452-0.086,0.625-0.259c1.278,1.032,2.853,1.709,4.573,1.877
		c0.009,0.481,0.401,0.868,0.885,0.868c0.001,0,0.002,0,0.004,0c0.484-0.002,0.876-0.395,0.88-0.876
		c1.683-0.18,3.257-0.841,4.562-1.916c0.171,0.164,0.392,0.248,0.611,0.248c0.229,0,0.457-0.088,0.63-0.264
		c0.341-0.343,0.34-0.896,0.004-1.241c1.063-1.315,1.709-2.896,1.871-4.58c0.482-0.009,0.87-0.403,0.868-0.887
		c-0.003-0.486-0.394-0.876-0.877-0.882c-0.186-1.717-0.876-3.285-1.92-4.554c0.34-0.349,0.336-0.905-0.011-1.249
		c-0.347-0.342-0.905-0.34-1.249,0.004c-0.07-0.059-0.142-0.114-0.214-0.169l4.829-2.934c0.54,0.86,1.494,1.437,2.581,1.437h0.014
		c1.136-0.006,2.123-0.636,2.643-1.562l5.008,3.042c-0.102,0.075-0.199,0.151-0.296,0.231c-0.349-0.334-0.9-0.328-1.241,0.016
		s-0.341,0.896-0.003,1.241c-1.063,1.315-1.71,2.897-1.872,4.58c-0.482,0.01-0.871,0.403-0.868,0.889
		c0.003,0.484,0.395,0.876,0.877,0.88c0.185,1.719,0.876,3.287,1.92,4.556c-0.339,0.348-0.336,0.903,0.011,1.247
		c0.172,0.17,0.397,0.256,0.622,0.256c0.228,0,0.453-0.087,0.626-0.259c1.278,1.032,2.853,1.709,4.573,1.877
		c0.009,0.481,0.4,0.868,0.884,0.868c0.001,0,0.003,0,0.004,0c0.486-0.002,0.876-0.395,0.881-0.876
		c1.682-0.18,3.257-0.841,4.562-1.916c0.17,0.164,0.391,0.248,0.612,0.248c0.228,0,0.456-0.088,0.628-0.264
		c0.342-0.343,0.341-0.896,0.004-1.241c1.063-1.315,1.709-2.896,1.872-4.58c0.482-0.009,0.87-0.403,0.868-0.887
		c-0.003-0.486-0.395-0.878-0.878-0.882c-0.185-1.717-0.876-3.285-1.92-4.556c0.34-0.347,0.336-0.903-0.01-1.247
		c-0.347-0.342-0.904-0.34-1.249,0.004c-1.277-1.033-2.853-1.709-4.572-1.876c-0.01-0.483-0.401-0.87-0.885-0.87
		c-0.002,0-0.002,0-0.004,0c-0.485,0.002-0.876,0.395-0.88,0.878c-0.88,0.092-1.729,0.319-2.527,0.667L72.324,60.185z
		 M33.464,66.016c0.172,0.172,0.398,0.256,0.622,0.256c0.056,0,0.111-0.006,0.166-0.015c0.814,0.997,1.356,2.226,1.506,3.57
		c-0.234,0.161-0.388,0.43-0.386,0.736c0.002,0.305,0.157,0.573,0.393,0.73c-0.132,1.316-0.638,2.555-1.465,3.588
		c-0.279-0.055-0.579,0.029-0.793,0.246s-0.294,0.518-0.239,0.796c-1.025,0.837-2.256,1.354-3.573,1.5
		c-0.159-0.233-0.427-0.387-0.73-0.387c-0.002,0-0.003,0-0.003,0c-0.307,0.002-0.575,0.158-0.732,0.394
		c-1.347-0.138-2.581-0.668-3.586-1.474c0.049-0.276-0.033-0.571-0.248-0.784c-0.216-0.215-0.512-0.293-0.788-0.241
		c-0.815-0.997-1.357-2.226-1.507-3.57c0.234-0.161,0.388-0.432,0.386-0.736s-0.157-0.573-0.393-0.732
		c0.132-1.316,0.638-2.553,1.465-3.586c0.054,0.01,0.11,0.016,0.164,0.016c0.228,0,0.456-0.088,0.629-0.262
		c0.215-0.217,0.295-0.518,0.239-0.796c1.025-0.839,2.257-1.355,3.573-1.5c0.16,0.231,0.428,0.385,0.73,0.385
		c0.002,0,0.004,0,0.004,0c0.306-0.002,0.574-0.156,0.731-0.392c1.348,0.136,2.581,0.666,3.586,1.474
		C33.167,65.508,33.25,65.803,33.464,66.016z M58.931,66.016c0.173,0.172,0.397,0.256,0.624,0.256c0.054,0,0.109-0.006,0.164-0.015
		c0.815,0.997,1.355,2.226,1.507,3.57c-0.233,0.161-0.387,0.43-0.386,0.736c0.001,0.305,0.158,0.573,0.394,0.73
		c-0.133,1.316-0.638,2.555-1.465,3.588c-0.279-0.055-0.578,0.029-0.794,0.246c-0.214,0.217-0.295,0.518-0.239,0.796
		c-1.024,0.837-2.257,1.354-3.572,1.5c-0.159-0.233-0.428-0.387-0.731-0.387c-0.001,0-0.002,0-0.004,0
		c-0.305,0.002-0.574,0.158-0.732,0.394c-1.347-0.138-2.579-0.668-3.584-1.474c0.048-0.276-0.034-0.571-0.249-0.784
		c-0.215-0.215-0.512-0.293-0.788-0.241c-0.815-0.997-1.356-2.226-1.507-3.57c0.233-0.161,0.387-0.432,0.386-0.736
		s-0.157-0.573-0.393-0.732c0.132-1.316,0.639-2.553,1.466-3.586c0.054,0.01,0.108,0.016,0.165,0.016
		c0.228,0,0.456-0.088,0.628-0.262c0.216-0.217,0.294-0.518,0.24-0.796c1.024-0.839,2.257-1.355,3.572-1.5
		c0.159,0.231,0.427,0.385,0.731,0.385c0.001,0,0.002,0,0.004,0c0.305-0.002,0.573-0.156,0.731-0.392
		c1.347,0.136,2.58,0.666,3.585,1.474C58.634,65.508,58.716,65.803,58.931,66.016z M80.704,51.095l9.044-8.135l0.745,0.669
		l-9.789,8.803V51.095z M80.704,57.319v-2.506l11.113-9.994l1.393,1.253L80.704,57.319z M87.227,40.693l1.197,1.077l-7.72,6.942
		V46.56L87.227,40.693z M65.283,43.329h6.874v2h-6.874V43.329z M45.274,30.266h-1.035v-8.56h1.035V30.266z M33.32,21.707h9.147v8.56
		H33.32V21.707z M38.93,32.037h0.733v8.099c-0.121-0.007-0.245-0.011-0.368-0.011c-0.009,0-0.019,0-0.028,0
		c-0.114,0-0.226,0.004-0.337,0.011V32.037z M39.275,41.895c0.007,0,0.014,0,0.021,0c2.081,0,3.83,1.474,4.252,3.436h-8.5
		C35.466,43.379,37.205,41.904,39.275,41.895z M29.861,58.414v-3.177l2.546-1.547c0.553,0.563,1.32,0.911,2.167,0.911h0.015
		c0.814-0.003,1.579-0.324,2.151-0.901c0.572-0.579,0.886-1.345,0.882-2.159c-0.008-1.672-1.375-3.032-3.062-3.032
		c-0.813,0.003-1.577,0.324-2.15,0.903c-0.572,0.577-0.885,1.345-0.882,2.158c0.002,0.188,0.021,0.37,0.055,0.55l-1.721,1.044
		v-6.063h49.072v11.313h-8.976c-0.333-1.322-1.532-2.305-2.966-2.305c-0.48,0.002-0.934,0.119-1.338,0.321l-8.264-5.021
		c0.003-0.056,0.008-0.11,0.008-0.164c-0.009-1.672-1.376-3.033-3.063-3.033c-1.679,0.009-3.04,1.382-3.031,3.063
		c0,0.03,0.004,0.06,0.004,0.09l-13.126,7.049H29.861z M33.298,51.562c-0.001-0.34,0.131-0.661,0.37-0.904
		c0.239-0.242,0.559-0.375,0.907-0.376c0.699,0,1.272,0.569,1.274,1.267c0.002,0.342-0.129,0.663-0.368,0.904
		c-0.241,0.243-0.561,0.377-0.901,0.379h-0.006C33.874,52.831,33.302,52.262,33.298,51.562z M55.626,51.253
		c0.004,0.704-0.565,1.279-1.269,1.283h-0.007c-0.7,0-1.271-0.569-1.275-1.27c-0.004-0.704,0.565-1.278,1.275-1.282
		C55.051,49.984,55.623,50.555,55.626,51.253z M51.898,53.06c0.556,0.754,1.447,1.247,2.452,1.247h0.016
		c0.98-0.005,1.85-0.476,2.403-1.202l7.563,4.594c-0.123,0.225-0.214,0.464-0.277,0.716h-22.13L51.898,53.06z M67.014,60.431h-0.006
		c-0.701,0-1.273-0.569-1.276-1.268c-0.003-0.704,0.567-1.279,1.276-1.283c0.699,0,1.272,0.569,1.275,1.27
		C68.287,59.854,67.717,60.43,67.014,60.431z M79.097,63.765c0.16,0.233,0.427,0.385,0.731,0.385c0.001,0,0.003,0,0.004,0
		c0.306,0,0.573-0.156,0.732-0.392c1.347,0.136,2.58,0.668,3.585,1.474c-0.05,0.276,0.032,0.571,0.247,0.784
		c0.174,0.172,0.397,0.256,0.624,0.256c0.055,0,0.11-0.006,0.164-0.015c0.816,0.997,1.357,2.226,1.508,3.57
		c-0.233,0.161-0.387,0.43-0.385,0.736c0.001,0.305,0.156,0.573,0.392,0.73c-0.133,1.316-0.637,2.555-1.464,3.588
		c-0.28-0.055-0.579,0.029-0.794,0.246s-0.295,0.518-0.239,0.796c-1.025,0.837-2.258,1.354-3.572,1.5
		c-0.16-0.233-0.428-0.387-0.73-0.387c-0.002,0-0.004,0-0.005,0c-0.306,0.002-0.574,0.158-0.732,0.394
		c-1.347-0.138-2.58-0.668-3.585-1.474c0.049-0.276-0.033-0.571-0.248-0.784c-0.215-0.215-0.512-0.293-0.788-0.241
		c-0.814-0.997-1.356-2.226-1.508-3.57c0.234-0.161,0.388-0.432,0.387-0.736c-0.002-0.305-0.157-0.573-0.394-0.732
		c0.132-1.316,0.639-2.553,1.466-3.586c0.054,0.01,0.109,0.016,0.164,0.016c0.229,0,0.456-0.088,0.63-0.262
		c0.215-0.217,0.294-0.518,0.239-0.796C76.551,64.426,77.781,63.909,79.097,63.765z"/>
	<path d="M37.807,22.79c-1.68,0.007-3.041,1.381-3.032,3.061c0.008,1.671,1.375,3.032,3.047,3.032h0.015
		c1.679-0.008,3.039-1.381,3.031-3.062C40.86,24.149,39.493,22.79,37.807,22.79z M37.827,27.112h-0.005
		c-0.701,0-1.273-0.57-1.276-1.269c-0.004-0.703,0.566-1.279,1.276-1.282c0.7,0,1.272,0.569,1.275,1.27
		C39.101,26.534,38.531,27.109,37.827,27.112z"/>
	<path d="M69.181,50.968h6.642c0.489,0,0.886-0.396,0.886-0.885c0-0.489-0.396-0.886-0.886-0.886h-6.642
		c-0.488,0-0.886,0.397-0.886,0.886C68.295,50.571,68.692,50.968,69.181,50.968z"/>
	<path d="M69.181,53.476h6.642c0.489,0,0.886-0.396,0.886-0.885s-0.396-0.886-0.886-0.886h-6.642c-0.488,0-0.886,0.396-0.886,0.886
		S68.692,53.476,69.181,53.476z"/>
</g>
</svg>
