<?xml version="1.0" encoding="utf-8"?>
<!-- Generator: Adobe Illustrator 16.0.0, SVG Export Plug-In . SVG Version: 6.00 Build 0)  -->
<!DOCTYPE svg PUBLIC "-//W3C//DTD SVG 1.1//EN" "http://www.w3.org/Graphics/SVG/1.1/DTD/svg11.dtd">
<svg version="1.1" id="Layer_10" xmlns="http://www.w3.org/2000/svg" xmlns:xlink="http://www.w3.org/1999/xlink" x="0px" y="0px"
	 width="100px" height="100px" viewBox="0 0 100 100" enable-background="new 0 0 100 100" xml:space="preserve">
<g>
	<path fill="#1D1D1B" d="M42.523,54.855c-1.434,0-2.594-1.159-2.594-2.593V27.922c0-1.433,1.162-2.591,2.594-2.593l0,0
		c1.433,0,2.592,1.16,2.592,2.593v24.341C45.117,53.696,43.955,54.855,42.523,54.855L42.523,54.855z"/>
	<path fill="#1D1D1B" d="M27.76,40.093c0,1.433,1.159,2.592,2.592,2.592l24.342,0.001c1.432,0,2.59-1.161,2.59-2.593l0,0
		c0.002-1.432-1.158-2.593-2.59-2.593H30.352C28.918,37.5,27.76,38.661,27.76,40.093L27.76,40.093z"/>
</g>
<path fill="#1D1D1B" d="M96.234,77.29c-1.248-2.187-3.809-2.831-5.99-1.604l-13.566,7.662V51.606c0-2.471-1.994-4.458-4.468-4.458
	c-2.476,0-4.388,1.987-4.388,4.458v31.909l-14.048-7.83c-2.188-1.207-4.679-0.527-5.906,1.604c-1.247,2.176-0.47,4.847,1.677,6.058
	l18.276,10.297h0.006c1.274,0.709,2.738,1.107,4.295,1.107c1.701,0,3.29-0.473,4.644-1.306l17.712-10.098
	C96.556,82.175,97.463,79.433,96.234,77.29z"/>
<path fill="#1D1D1B" d="M80.568,29.25c0-0.645-0.257-1.225-0.707-1.61L62.637,10.383c-0.419-0.417-0.999-0.708-1.642-0.708H21.717
	c-1.255,0-2.286,1.031-2.286,2.287v76.111c0,1.223,1.03,2.253,2.286,2.253h19.944v-0.002c1.243-0.012,2.249-1.021,2.249-2.269
	c0-1.254-1.017-2.27-2.27-2.27c-0.006,0-0.012,0.002-0.018,0.002v-0.002h-17.62V14.214h34.705V29.25c0,1.255,1.03,2.287,2.286,2.287
	h15.033v11.63h0.003c-0.001,0.008-0.003,0.017-0.003,0.025c0,1.254,1.017,2.27,2.271,2.27c1.253,0,2.27-1.016,2.27-2.27
	c0-0.008-0.002-0.017-0.003-0.025h0.003V29.25z M63.28,26.995v-9.562l9.53,9.562H63.28z"/>
</svg>
