<?xml version="1.0" encoding="utf-8"?>
<!-- Generator: Adobe Illustrator 16.0.0, SVG Export Plug-In . SVG Version: 6.00 Build 0)  -->
<!DOCTYPE svg PUBLIC "-//W3C//DTD SVG 1.1//EN" "http://www.w3.org/Graphics/SVG/1.1/DTD/svg11.dtd">
<svg version="1.1" id="Layer_1" xmlns="http://www.w3.org/2000/svg" xmlns:xlink="http://www.w3.org/1999/xlink" x="0px" y="0px"
	 width="100px" height="100px" viewBox="0 0 100 100" enable-background="new 0 0 100 100" xml:space="preserve">
<g>
	<path d="M49.836,32.011c6.011,0,10.9-4.771,10.9-10.636c0-5.362-4.177-8.693-10.9-8.693s-10.899,3.331-10.899,8.693
		C38.937,27.239,43.826,32.011,49.836,32.011z M49.836,14.945c7.796,0,8.638,4.496,8.638,6.43c0,4.617-3.875,8.374-8.638,8.374
		c-4.762,0-8.636-3.757-8.636-8.374C41.2,19.441,42.042,14.945,49.836,14.945z"/>
	<path d="M50.148,17.843c0.379,0,0.753,0.02,1.112,0.058c0.041,0.005,0.082,0.007,0.122,0.007c0.571,0,1.062-0.43,1.124-1.01
		c0.067-0.622-0.383-1.18-1.004-1.247c-0.438-0.047-0.895-0.071-1.354-0.071c-0.625,0-1.132,0.507-1.132,1.132
		S49.523,17.843,50.148,17.843z"/>
	<path d="M53.777,18.666c1.06,0.648,1.69,1.784,1.69,3.039c0,0.625,0.508,1.132,1.133,1.132c0.625-0.002,1.131-0.508,1.131-1.133
		c-0.001-2.049-1.037-3.906-2.772-4.969c-0.534-0.325-1.229-0.158-1.556,0.375C53.077,17.643,53.245,18.34,53.777,18.666z"/>
	<path d="M86.781,48.648l-16.5-16.498c-1.801-1.801-4.292-2.833-6.838-2.833h-2.068c1.765-2.385,2.812-5.333,2.812-8.52
		c0-7.913-6.438-14.351-14.351-14.351c-7.911,0-14.349,6.438-14.349,14.351c0,3.188,1.046,6.135,2.813,8.52h-1.743
		c-2.546,0-5.038,1.032-6.838,2.833L13.218,48.648c-2.466,2.469-2.465,6.484,0,8.949c1.197,1.197,2.787,1.857,4.476,1.857
		c1.692,0,3.283-0.66,4.476-1.857l9.821-9.817v34.876c-2.698,0.346-4.79,2.656-4.79,5.445v4.32c0,0.625,0.507,1.131,1.132,1.131
		h18.712c0.603,0,1.1-0.471,1.131-1.072l1.158-22.691h1.336l1.158,22.691c0.031,0.602,0.527,1.072,1.13,1.072h18.38
		c0.625,0,1.131-0.506,1.131-1.131v-4.32c0-2.637-1.87-4.848-4.354-5.371V47.784l9.716,9.813c1.193,1.197,2.782,1.855,4.475,1.855
		c1.689,0,3.278-0.658,4.476-1.855C89.248,55.133,89.248,51.117,86.781,48.648z M37.75,20.798c0-6.665,5.422-12.087,12.085-12.087
		c6.665,0,12.087,5.422,12.087,12.087c0,6.664-5.422,12.086-12.087,12.086C43.172,32.884,37.75,27.462,37.75,20.798z M38.189,31.581
		h2.196c2.526,2.216,5.833,3.565,9.451,3.565c2.669,0,5.169-0.734,7.311-2.008v5.603c0,1.414-1.151,2.564-2.565,2.564h-0.382
		c-0.155-0.438-0.569-0.754-1.062-0.754h-6.602c-0.625,0-1.132,0.506-1.132,1.131v1.227h-4.558c-1.464,0-2.656-1.191-2.656-2.655
		V31.581z M65.851,57.9c-1.945-0.035-3.517-1.625-3.517-3.58c0-3.225-2.624-5.848-5.849-5.848h-2.217v-1.31h11.582V57.9z
		 M52.006,42.814v8.111h-4.338v-8.111H52.006z M17.694,57.191c-1.085,0-2.106-0.424-2.875-1.193
		c-1.306-1.307-1.533-3.289-0.685-4.832l5.521,5.52C19.062,57.014,18.393,57.191,17.694,57.191z M21.37,55.197l-5.75-5.75
		l6.322-6.32l5.75,5.75L21.37,55.197z M29.292,47.277l-5.75-5.751l7.778-7.776c1.229-1.229,2.881-1.989,4.607-2.141v8.645
		c0,2.712,2.207,4.918,4.918,4.918h4.558v6.885c0,0.625,0.507,1.133,1.132,1.133h6.602c0.624,0,1.131-0.508,1.131-1.133v-1.318
		h2.217c1.977,0,3.584,1.607,3.584,3.584c0,3.201,2.589,5.807,5.782,5.844v1.889H34.254V49.982h0.447
		c1.767,0,3.206,1.439,3.206,3.207c0,3.018,2.453,5.471,5.47,5.471h3.262c0.469,1.316,1.723,2.262,3.197,2.262
		c1.872,0,3.396-1.521,3.396-3.393c0-1.873-1.523-3.396-3.396-3.396c-1.474,0-2.728,0.945-3.197,2.264h-3.262
		c-1.768,0-3.207-1.439-3.207-3.207c0-3.018-2.454-5.47-5.469-5.47h-0.447v-2.671c0-0.458-0.276-0.87-0.698-1.046
		c-0.423-0.175-0.91-0.078-1.233,0.245L29.292,47.277z M48.705,57.527c0-0.623,0.507-1.131,1.131-1.131
		c0.625,0,1.132,0.508,1.132,1.131s-0.507,1.133-1.132,1.133C49.212,58.66,48.705,58.15,48.705,57.527z M31.466,91.291h-2.001
		v-1.322h2.001V91.291z M36.463,91.291h-2.734v-1.322h2.734V91.291z M41.462,91.291h-2.735v-1.322h2.735V91.291z M45.971,91.291
		h-2.245v-1.322h2.313L45.971,91.291z M46.153,87.705H29.491c0.196-1.586,1.546-2.818,3.182-2.828h6.272
		c0.625,0,1.132-0.506,1.132-1.131s-0.507-1.133-1.132-1.133h-4.69v-3.207h12.323L46.153,87.705z M46.692,77.143H34.254v-1.885
		h12.535L46.692,77.143z M52.874,68.598c-0.029-0.6-0.525-1.074-1.129-1.074h-3.486c-0.604,0-1.098,0.475-1.129,1.074l-0.225,4.395
		H34.254v-8.676h31.598v8.676H53.1L52.874,68.598z M53.216,75.258h12.636v1.885h-12.54L53.216,75.258z M55.985,91.291h-1.952
		l-0.067-1.322h2.02V91.291z M60.985,91.291h-2.736v-1.322h2.736V91.291z M65.983,91.291h-2.736v-1.322h2.736V91.291z
		 M70.207,91.291h-1.96v-1.322h1.96V91.291z M70.181,87.705h-16.33l-0.423-8.299h12.424v3.207h-5.246
		c-0.625,0-1.132,0.508-1.132,1.133s0.507,1.131,1.132,1.131H67C68.635,84.887,69.984,86.119,70.181,87.705z M67.678,44.247
		c-0.189-0.188-0.437-0.29-0.693-0.313l-0.001-0.004c-0.008,0-0.015,0.002-0.023,0.002c-0.116-0.01-0.232,0.002-0.349,0.029
		c-0.35,0.054-0.605,0.211-0.701,0.517c-0.076,0.128-0.121,0.271-0.142,0.421h-11.5v-1.329h0.313c2.662,0,4.828-2.166,4.828-4.828
		v-7.132h4.664c1.726,0.151,3.377,0.911,4.607,2.141l7.777,7.775l-5.75,5.75L67.678,44.247z M72.309,48.877l5.75-5.75l6.321,6.32
		l-5.75,5.75L72.309,48.877z M85.181,55.998c-0.77,0.768-1.79,1.193-2.875,1.193c-0.697,0-1.368-0.178-1.962-0.506l5.521-5.52
		C86.714,52.709,86.487,54.691,85.181,55.998z"/>
</g>
</svg>
