<?xml version="1.0" encoding="utf-8"?>
<!-- Generator: Adobe Illustrator 16.0.0, SVG Export Plug-In . SVG Version: 6.00 Build 0)  -->
<!DOCTYPE svg PUBLIC "-//W3C//DTD SVG 1.1//EN" "http://www.w3.org/Graphics/SVG/1.1/DTD/svg11.dtd">
<svg version="1.1" id="Layer_1" xmlns="http://www.w3.org/2000/svg" xmlns:xlink="http://www.w3.org/1999/xlink" x="0px" y="0px"
	 width="100px" height="100px" viewBox="0 0 100 100" enable-background="new 0 0 100 100" xml:space="preserve">
<path d="M36.02,71.988c-1.96,1.762-4.977,1.6-6.739-0.361L12.717,53.188c-1.761-1.959-1.598-4.976,0.361-6.737l0,0
	c1.961-1.762,4.977-1.6,6.739,0.361L36.381,65.25C38.141,67.209,37.979,70.229,36.02,71.988L36.02,71.988z"/>
<path d="M13.078,53.551c-1.96-1.76-2.121-4.779-0.361-6.738l16.564-18.438c1.762-1.961,4.778-2.123,6.739-0.361l0,0
	c1.959,1.761,2.122,4.778,0.361,6.737L19.817,53.189C18.055,55.15,15.039,55.313,13.078,53.551L13.078,53.551z"/>
<path d="M11.496,50c0,2.637,2.136,4.772,4.772,4.772l67.981,0.001c2.635,0,4.771-2.137,4.771-4.773l0,0
	c0.001-2.635-2.136-4.772-4.771-4.772h-67.98C13.633,45.228,11.496,47.365,11.496,50L11.496,50z"/>
</svg>
