<?xml version="1.0" encoding="utf-8"?>
<!-- Generator: Adobe Illustrator 15.1.0, SVG Export Plug-In . SVG Version: 6.00 Build 0)  -->
<!DOCTYPE svg PUBLIC "-//W3C//DTD SVG 1.1//EN" "http://www.w3.org/Graphics/SVG/1.1/DTD/svg11.dtd">
<svg version="1.1" id="Layer_1" xmlns="http://www.w3.org/2000/svg" xmlns:xlink="http://www.w3.org/1999/xlink" x="0px" y="0px"
	 width="100px" height="100px" viewBox="0 0 100 100" enable-background="new 0 0 100 100" xml:space="preserve">
<g>
	<path id="path2258" fill="#737577" d="M77.694,22.305l-27.687,8.24l-27.702-8.24L30.552,50l-8.247,27.693L50,69.446l27.694,8.247
		l-8.24-27.701L77.694,22.305z M73.869,26.13L61.207,49.993l12.655,23.869L50,61.199L26.138,73.861L38.8,50L26.138,26.137
		l23.869,12.655L73.869,26.13z"/>
	<path id="path2253" fill="#231F20" d="M50,10.834L36.249,36.238L10.834,50l25.415,13.75L50,89.166L63.752,63.75L89.166,50
		L63.752,36.238L50,10.834z M50,16.243l7.919,25.827L83.746,50l-25.827,7.919L50,83.745l-7.919-25.826L16.254,50l25.826-7.93
		L50,16.243z"/>
</g>
</svg>
