<?xml version="1.0" encoding="utf-8"?>
<!-- Generator: Adobe Illustrator 15.1.0, SVG Export Plug-In . SVG Version: 6.00 Build 0)  -->
<!DOCTYPE svg PUBLIC "-//W3C//DTD SVG 1.1//EN" "http://www.w3.org/Graphics/SVG/1.1/DTD/svg11.dtd">
<svg version="1.1" id="Layer_1" xmlns="http://www.w3.org/2000/svg" xmlns:xlink="http://www.w3.org/1999/xlink" x="0px" y="0px"
	 width="100px" height="100px" viewBox="0 0 100 100" enable-background="new 0 0 100 100" xml:space="preserve">
<g>
	<path fill="#58595B" stroke="#1D1D1B" stroke-miterlimit="10" d="M35.087,38.729c0,6.77-5.483,12.255-12.254,12.255l0,0
		c-6.767,0-12.253-5.485-12.253-12.255v-0.438c0-6.768,5.486-12.255,12.253-12.255l0,0c6.771,0,12.254,5.487,12.254,12.255V38.729z"
		/>
	<path fill="#FFFFFF" stroke="#1D1D1B" stroke-miterlimit="10" d="M35.087,33.543c0,6.77-5.483,12.255-12.254,12.255l0,0
		c-6.767,0-12.253-5.485-12.253-12.255v-0.438c0-6.768,5.486-12.255,12.253-12.255l0,0c6.771,0,12.254,5.487,12.254,12.255V33.543z"
		/>
	<line fill="none" stroke="#1D1D1B" stroke-miterlimit="10" x1="10.58" y1="33.105" x2="10.58" y2="38.291"/>
	<line fill="none" stroke="#1D1D1B" stroke-miterlimit="10" x1="35.087" y1="33.105" x2="35.087" y2="38.291"/>
	<path fill="#58595B" stroke="#1D1D1B" stroke-miterlimit="10" d="M35.087,66.896c0,6.77-5.483,12.254-12.254,12.254l0,0
		c-6.767,0-12.253-5.484-12.253-12.254v-0.438c0-6.768,5.486-12.256,12.253-12.256l0,0c6.771,0,12.254,5.488,12.254,12.256V66.896z"
		/>
	<path fill="#FFFFFF" stroke="#1D1D1B" stroke-miterlimit="10" d="M35.087,61.71c0,6.77-5.483,12.255-12.254,12.255l0,0
		c-6.767,0-12.253-5.485-12.253-12.255v-0.438c0-6.768,5.486-12.255,12.253-12.255l0,0c6.771,0,12.254,5.487,12.254,12.255V61.71z"
		/>
	<line fill="none" stroke="#1D1D1B" stroke-miterlimit="10" x1="10.58" y1="61.272" x2="10.58" y2="66.458"/>
	<line fill="none" stroke="#1D1D1B" stroke-miterlimit="10" x1="35.087" y1="61.272" x2="35.087" y2="66.458"/>
	<path fill="#58595B" stroke="#1D1D1B" stroke-miterlimit="10" d="M62.254,38.729c0,6.77-5.484,12.255-12.255,12.255l0,0
		c-6.767,0-12.252-5.485-12.252-12.255v-0.438c0-6.768,5.485-12.255,12.252-12.255l0,0c6.771,0,12.255,5.487,12.255,12.255V38.729z"
		/>
	<path fill="#FFFFFF" stroke="#1D1D1B" stroke-miterlimit="10" d="M62.254,33.543c0,6.77-5.484,12.255-12.255,12.255l0,0
		c-6.767,0-12.252-5.485-12.252-12.255v-0.438c0-6.768,5.485-12.255,12.252-12.255l0,0c6.771,0,12.255,5.487,12.255,12.255V33.543z"
		/>
	<line fill="none" stroke="#1D1D1B" stroke-miterlimit="10" x1="62.254" y1="33.105" x2="62.254" y2="38.291"/>
	<path fill="#58595B" stroke="#1D1D1B" stroke-miterlimit="10" d="M62.254,66.896c0,6.77-5.484,12.254-12.255,12.254l0,0
		c-6.767,0-12.252-5.484-12.252-12.254v-0.438c0-6.768,5.485-12.256,12.252-12.256l0,0c6.771,0,12.255,5.488,12.255,12.256V66.896z"
		/>
	<path fill="#FFFFFF" stroke="#1D1D1B" stroke-miterlimit="10" d="M62.254,61.71c0,6.77-5.484,12.255-12.255,12.255l0,0
		c-6.767,0-12.252-5.485-12.252-12.255v-0.438c0-6.768,5.485-12.255,12.252-12.255l0,0c6.771,0,12.255,5.487,12.255,12.255V61.71z"
		/>
	<line fill="none" stroke="#1D1D1B" stroke-miterlimit="10" x1="62.254" y1="61.272" x2="62.254" y2="66.458"/>
	<path fill="#58595B" stroke="#1D1D1B" stroke-miterlimit="10" d="M89.42,38.729c0,6.77-5.483,12.255-12.254,12.255l0,0
		c-6.767,0-12.252-5.485-12.252-12.255v-0.438c0-6.768,5.485-12.255,12.252-12.255l0,0c6.771,0,12.254,5.487,12.254,12.255V38.729z"
		/>
	<path fill="#FFFFFF" stroke="#1D1D1B" stroke-miterlimit="10" d="M89.42,33.543c0,6.77-5.483,12.255-12.254,12.255l0,0
		c-6.767,0-12.252-5.485-12.252-12.255v-0.438c0-6.768,5.485-12.255,12.252-12.255l0,0c6.771,0,12.254,5.487,12.254,12.255V33.543z"
		/>
	<line fill="none" stroke="#1D1D1B" stroke-miterlimit="10" x1="89.42" y1="33.105" x2="89.42" y2="38.291"/>
	<path fill="#58595B" stroke="#1D1D1B" stroke-miterlimit="10" d="M89.42,66.896c0,6.77-5.483,12.254-12.254,12.254l0,0
		c-6.767,0-12.252-5.484-12.252-12.254v-0.438c0-6.768,5.485-12.256,12.252-12.256l0,0c6.771,0,12.254,5.488,12.254,12.256V66.896z"
		/>
	<path fill="#FFFFFF" stroke="#1D1D1B" stroke-miterlimit="10" d="M89.42,61.71c0,6.77-5.483,12.255-12.254,12.255l0,0
		c-6.767,0-12.252-5.485-12.252-12.255v-0.438c0-6.768,5.485-12.255,12.252-12.255l0,0c6.771,0,12.254,5.487,12.254,12.255V61.71z"
		/>
	<line fill="none" stroke="#1D1D1B" stroke-miterlimit="10" x1="89.42" y1="61.272" x2="89.42" y2="66.458"/>
</g>
</svg>
