<?xml version="1.0" encoding="utf-8"?>
<!-- Generator: Adobe Illustrator 15.1.0, SVG Export Plug-In . SVG Version: 6.00 Build 0)  -->
<!DOCTYPE svg PUBLIC "-//W3C//DTD SVG 1.1//EN" "http://www.w3.org/Graphics/SVG/1.1/DTD/svg11.dtd">
<svg version="1.1" id="Layer_10" xmlns="http://www.w3.org/2000/svg" xmlns:xlink="http://www.w3.org/1999/xlink" x="0px" y="0px"
	 width="100px" height="100px" viewBox="0 0 100 100" enable-background="new 0 0 100 100" xml:space="preserve">
<g>
	<path fill="#FFFFFF" d="M84.741,32.551l-7.673-7.673c-0.908-0.908-2.381-0.908-3.289,0L41.815,56.843L28.22,43.248
		c-0.908-0.908-2.38-0.908-3.289,0l-7.673,7.673c-0.908,0.908-0.908,2.381,0,3.289l22.913,22.912
		c0.454,0.455,1.049,0.682,1.645,0.682c0.595,0,1.19-0.227,1.644-0.682L84.741,35.84c0.437-0.436,0.682-1.028,0.682-1.644
		C85.423,33.579,85.178,32.988,84.741,32.551z"/>
</g>
</svg>
