<?xml version="1.0" encoding="utf-8"?>
<!-- Generator: Adobe Illustrator 16.0.0, SVG Export Plug-In . SVG Version: 6.00 Build 0)  -->
<!DOCTYPE svg PUBLIC "-//W3C//DTD SVG 1.1//EN" "http://www.w3.org/Graphics/SVG/1.1/DTD/svg11.dtd">
<svg version="1.1" id="Layer_1" xmlns="http://www.w3.org/2000/svg" xmlns:xlink="http://www.w3.org/1999/xlink" x="0px" y="0px"
	 width="100px" height="100px" viewBox="0 0 100 100" enable-background="new 0 0 100 100" xml:space="preserve">
<g>
	<path fill="#FFFFFF" d="M79.348,79.348c-2.847,2.847-7.462,2.847-10.309,0L20.651,30.96c-2.846-2.846-2.846-7.461,0-10.308l0,0
		c2.846-2.847,7.461-2.847,10.308,0L79.348,69.04C82.194,71.886,82.194,76.502,79.348,79.348L79.348,79.348z"/>
	<path fill="#FFFFFF" d="M20.652,79.348c2.847,2.847,7.462,2.847,10.309,0L79.349,30.96c2.847-2.846,2.846-7.461-0.001-10.308l0,0
		c-2.846-2.847-7.461-2.847-10.308,0L20.652,69.04C17.806,71.886,17.806,76.502,20.652,79.348L20.652,79.348z"/>
</g>
</svg>
