<?xml version="1.0" encoding="utf-8"?>
<!-- Generator: Adobe Illustrator 15.1.0, SVG Export Plug-In . SVG Version: 6.00 Build 0)  -->
<!DOCTYPE svg PUBLIC "-//W3C//DTD SVG 1.1//EN" "http://www.w3.org/Graphics/SVG/1.1/DTD/svg11.dtd">
<svg version="1.1" id="Layer_1" xmlns="http://www.w3.org/2000/svg" xmlns:xlink="http://www.w3.org/1999/xlink" x="0px" y="0px"
	 width="100px" height="100px" viewBox="0 0 100 100" enable-background="new 0 0 100 100" xml:space="preserve">
<path fill="#58595B" stroke="#1D1D1B" stroke-miterlimit="10" d="M97.228,55.943c0,6.77-5.483,12.255-12.254,12.255H15.024
	c-6.767,0-12.252-5.485-12.252-12.255v-0.438c0-6.768,5.486-12.255,12.252-12.255h69.949c6.771,0,12.254,5.487,12.254,12.255V55.943
	z"/>
<path fill="#FFFFFF" stroke="#1D1D1B" stroke-miterlimit="10" d="M97.228,50.758c0,6.77-5.483,12.255-12.254,12.255H15.024
	c-6.767,0-12.252-5.485-12.252-12.255V50.32c0-6.768,5.486-12.255,12.252-12.255h69.949c6.771,0,12.254,5.487,12.254,12.255V50.758z
	"/>
<text transform="matrix(1 0 0 1 31.314 55.7227)" fill="#231F20" font-family="'MyriadPro-Bold'" font-size="14.352">CLICK</text>
<line fill="none" stroke="#1D1D1B" stroke-miterlimit="10" x1="2.772" y1="50.32" x2="2.772" y2="55.506"/>
<line fill="none" stroke="#1D1D1B" stroke-miterlimit="10" x1="97.228" y1="50.32" x2="97.228" y2="55.506"/>
</svg>
