<?xml version="1.0" encoding="utf-8"?>
<!-- Generator: Adobe Illustrator 15.1.0, SVG Export Plug-In . SVG Version: 6.00 Build 0)  -->
<!DOCTYPE svg PUBLIC "-//W3C//DTD SVG 1.1//EN" "http://www.w3.org/Graphics/SVG/1.1/DTD/svg11.dtd">
<svg version="1.1" id="Layer_1" xmlns="http://www.w3.org/2000/svg" xmlns:xlink="http://www.w3.org/1999/xlink" x="0px" y="0px"
	 width="100px" height="100px" viewBox="0 0 100 100" enable-background="new 0 0 100 100" xml:space="preserve">
<g>
	<path d="M80.348,33.735c-1.472,0.842-1.908,2.569-1.082,4.04l5.17,9.152H63.021c-1.666,0-3.008,1.347-3.008,3.016
		c0,1.668,1.342,2.961,3.008,2.961H84.55l-5.284,9.476c-0.814,1.478-0.354,3.157,1.082,3.985c1.469,0.841,3.271,0.318,4.088-1.131
		l6.948-12.33v-0.006c0.476-0.858,0.746-1.846,0.746-2.896c0-1.146-0.321-2.218-0.881-3.131l-6.813-11.95
		C83.645,33.519,81.794,32.908,80.348,33.735z"/>
</g>
<g>
	<path d="M19.783,66.395c1.47-0.842,1.908-2.567,1.081-4.039l-5.17-9.153h21.415c1.665,0,3.007-1.345,3.007-3.014
		c0-1.669-1.343-2.961-3.007-2.961H15.58l5.285-9.476c0.815-1.477,0.355-3.157-1.081-3.985c-1.47-0.841-3.273-0.318-4.089,1.129
		L8.746,47.227v0.005C8.272,48.091,8,49.079,8,50.128c0,1.147,0.322,2.22,0.88,3.131l6.814,11.95
		C16.486,66.611,18.336,67.223,19.783,66.395z"/>
</g>
<path d="M47.013,81.393c0,1.666,1.345,3.008,3.014,3.008c1.67,0,2.961-1.344,2.961-3.008V18.607c0-1.666-1.344-3.008-3.014-3.008
	c-1.669,0-2.961,1.344-2.961,3.008V81.393z"/>
</svg>
