<?xml version="1.0" encoding="UTF-8" standalone="no"?>
<svg
   xmlns:dc="http://purl.org/dc/elements/1.1/"
   xmlns:cc="http://creativecommons.org/ns#"
   xmlns:rdf="http://www.w3.org/1999/02/22-rdf-syntax-ns#"
   xmlns:svg="http://www.w3.org/2000/svg"
   xmlns="http://www.w3.org/2000/svg"
   version="1.1"
   id="svg3336"
   viewBox="0 0 100 100"
   height="100"
   width="100">
  <defs
     id="defs3338" />
  <metadata
     id="metadata3341">
    <rdf:RDF>
      <cc:Work
         rdf:about="">
        <dc:format>image/svg+xml</dc:format>
        <dc:type
           rdf:resource="http://purl.org/dc/dcmitype/StillImage" />
        <dc:title></dc:title>
      </cc:Work>
    </rdf:RDF>
  </metadata>
  <g
     transform="translate(0,-952.36212)"
     id="layer1">
    <g
       transform="translate(-288.14286,666.71926)"
       id="g3389">
      <g
         id="g3345">
        <path
           id="path3414"
           d="m 338.14286,286.65301 a 48.989847,48.989847 0 0 0 -48.98985,48.98985 48.989847,48.989847 0 0 0 48.98985,48.98985 48.989847,48.989847 0 0 0 48.98985,-48.98985 48.989847,48.989847 0 0 0 -48.98985,-48.98985 z m 0,3.7106 a 45.278307,45.278307 0 0 1 45.27925,45.27925 45.278307,45.278307 0 0 1 -45.27925,45.27925 45.278307,45.278307 0 0 1 -45.27925,-45.27925 45.278307,45.278307 0 0 1 45.27925,-45.27925 z"
           style="fill:#ffffff" />
        <path
           style="fill:#ffffff"
           d="m 351.25548,328.09995 -9.55478,0 0,-6.97335 c 0,-2.139 2.21259,-2.63507 3.24529,-2.63507 1.02584,0 6.17239,0 6.17239,0 l 0,-9.4106 -7.0742,-0.0369 c -9.65177,0 -11.8547,7.01691 -11.8547,11.51612 l 0,7.54002 -7.00361,0 0,9.69553 7.00361,0 c 0,12.44819 0,26.1769 0,26.1769 l 9.51122,0 c 0,0 0,-13.86968 0,-26.1769 l 8.07965,0 1.47513,-9.69575 z"
           id="path3484" />
      </g>
    </g>
  </g>
</svg>
