<?xml version="1.0" encoding="utf-8"?>
<!-- Generator: Adobe Illustrator 16.0.0, SVG Export Plug-In . SVG Version: 6.00 Build 0)  -->
<!DOCTYPE svg PUBLIC "-//W3C//DTD SVG 1.1//EN" "http://www.w3.org/Graphics/SVG/1.1/DTD/svg11.dtd">
<svg version="1.1" id="Layer_1" xmlns="http://www.w3.org/2000/svg" xmlns:xlink="http://www.w3.org/1999/xlink" x="0px" y="0px"
	 width="100px" height="100px" viewBox="0 0 100 100" enable-background="new 0 0 100 100" xml:space="preserve">
<path d="M83.628,23.923c0,3.709-3.005,6.715-6.715,6.715H23.086c-3.708,0-6.714-3.006-6.715-6.714l0,0
	c0-3.709,3.006-6.714,6.715-6.715l53.828,0C80.621,17.208,83.628,20.215,83.628,23.923L83.628,23.923z"/>
<path d="M83.628,50.332c0,3.709-3.005,6.716-6.715,6.716H23.086c-3.708,0-6.714-3.007-6.715-6.715l0,0
	c0-3.709,3.006-6.715,6.715-6.715l53.828-0.001C80.621,43.617,83.628,46.625,83.628,50.332L83.628,50.332z"/>
<path d="M83.628,76.742c0,3.708-3.005,6.715-6.715,6.715H23.086c-3.708,0-6.714-3.007-6.715-6.715l0,0
	c0-3.709,3.006-6.714,6.715-6.715h53.828C80.621,70.027,83.628,73.033,83.628,76.742L83.628,76.742z"/>
</svg>
