<?xml version="1.0" encoding="utf-8"?>
<!-- Generator: Adobe Illustrator 15.1.0, SVG Export Plug-In . SVG Version: 6.00 Build 0)  -->
<!DOCTYPE svg PUBLIC "-//W3C//DTD SVG 1.1//EN" "http://www.w3.org/Graphics/SVG/1.1/DTD/svg11.dtd">
<svg version="1.1" id="Layer_1" xmlns="http://www.w3.org/2000/svg" xmlns:xlink="http://www.w3.org/1999/xlink" x="0px" y="0px"
	 width="100px" height="100px" viewBox="0 0 100 100" enable-background="new 0 0 100 100" xml:space="preserve">
<path d="M19.829,18.833v33.38l29.079,29.067h4.872h0.147h26.565V18.833H19.829z M50.966,62.992H35.657L32.33,59.66l8.018-10.272
	L50.966,62.992z M50.42,56.489l6.009-5.765l13.32,12.318H55.533L50.42,56.489z M76.926,77.712H50.363L39.275,66.61h37.651V77.712z
	 M76.926,63.043h-1.921l-18.622-17.22l-8.174,7.84l-7.861-10.075L29.789,57.117l-6.391-6.399V22.401h36.133
	c-0.297,1.154-0.449,2.35-0.449,3.567c0,7.874,6.404,14.273,14.275,14.273c1.219,0,2.414-0.151,3.568-0.448V63.043z M76.926,36.064
	c-1.141,0.402-2.335,0.611-3.568,0.611c-5.905,0-10.706-4.803-10.706-10.707c0-1.232,0.202-2.427,0.61-3.567h13.664V36.064z"/>
<path d="M38.889,74.879l-3.825-3.827c-1.034-1.031-2.283-1.547-3.756-1.547c-1.498,0-2.773,0.539-3.825,1.62l-1.625-1.62
	c1.082-1.054,1.625-2.338,1.625-3.845c0-1.473-0.513-2.718-1.53-3.735l-3.791-3.809c-1.019-1.042-2.271-1.564-3.755-1.564
	c-1.471,0-2.718,0.508-3.735,1.525l-2.704,2.688c-1.045,1.022-1.565,2.265-1.565,3.735c0,1.473,0.516,2.727,1.544,3.758l3.827,3.822
	c1.031,1.033,2.283,1.549,3.756,1.549c1.496,0,2.771-0.538,3.829-1.62l1.618,1.62c-1.079,1.055-1.618,2.338-1.618,3.846
	c0,1.473,0.506,2.718,1.526,3.735l3.79,3.811c1.02,1.04,2.269,1.563,3.751,1.563c1.473,0,2.72-0.509,3.74-1.525l2.704-2.688
	c1.042-1.021,1.565-2.265,1.565-3.734C40.435,77.161,39.919,75.907,38.889,74.879 M23.359,67.006
	c-0.037-0.039-0.152-0.154-0.343-0.352c-0.188-0.196-0.325-0.329-0.394-0.396c-0.076-0.068-0.191-0.158-0.35-0.275
	c-0.161-0.115-0.318-0.196-0.47-0.237c-0.154-0.046-0.322-0.067-0.506-0.067c-0.488,0-0.909,0.176-1.251,0.519
	c-0.343,0.343-0.516,0.757-0.516,1.249c0,0.185,0.023,0.353,0.064,0.504c0.046,0.154,0.124,0.313,0.239,0.472
	c0.115,0.159,0.207,0.276,0.276,0.348c0.067,0.074,0.203,0.207,0.396,0.396c0.198,0.193,0.313,0.304,0.348,0.34
	c-0.366,0.383-0.808,0.573-1.323,0.573c-0.504,0-0.92-0.168-1.252-0.497l-3.83-3.827c-0.34-0.345-0.511-0.764-0.511-1.254
	c0-0.477,0.17-0.889,0.511-1.231l2.709-2.69c0.354-0.326,0.773-0.494,1.25-0.494c0.49,0,0.909,0.173,1.252,0.52l3.79,3.805
	c0.343,0.343,0.518,0.762,0.518,1.252C23.967,66.176,23.765,66.624,23.359,67.006 M36.387,79.865l-2.704,2.688
	c-0.345,0.317-0.764,0.479-1.252,0.479c-0.506,0-0.92-0.168-1.252-0.502l-3.792-3.804c-0.343-0.343-0.513-0.762-0.513-1.252
	c0-0.516,0.203-0.964,0.61-1.342c0.032,0.034,0.147,0.149,0.338,0.346c0.191,0.197,0.322,0.331,0.396,0.396
	c0.072,0.069,0.187,0.161,0.352,0.278c0.157,0.115,0.313,0.198,0.467,0.237c0.15,0.046,0.32,0.066,0.504,0.066
	c0.493,0,0.907-0.17,1.252-0.516c0.341-0.345,0.516-0.762,0.516-1.252c0-0.184-0.021-0.352-0.064-0.504
	c-0.042-0.151-0.12-0.313-0.239-0.472c-0.118-0.158-0.209-0.276-0.276-0.348c-0.069-0.073-0.198-0.207-0.396-0.396
	c-0.193-0.193-0.313-0.304-0.35-0.341c0.368-0.394,0.81-0.589,1.326-0.589c0.493,0,0.907,0.173,1.25,0.513l3.83,3.827
	c0.343,0.348,0.518,0.765,0.518,1.255C36.905,79.11,36.73,79.522,36.387,79.865"/>
</svg>
