<?xml version="1.0" encoding="utf-8"?>
<!-- Generator: Adobe Illustrator 15.1.0, SVG Export Plug-In . SVG Version: 6.00 Build 0)  -->
<!DOCTYPE svg PUBLIC "-//W3C//DTD SVG 1.1//EN" "http://www.w3.org/Graphics/SVG/1.1/DTD/svg11.dtd">
<svg version="1.1" id="Layer_1" xmlns="http://www.w3.org/2000/svg" xmlns:xlink="http://www.w3.org/1999/xlink" x="0px" y="0px"
	 width="100px" height="100px" viewBox="0 0 100 100" enable-background="new 0 0 100 100" xml:space="preserve">
<path d="M19.723,81.166h60.555V18.833H19.723V81.166z M23.288,66.525h53.429v11.08H23.288V66.525z M50.807,62.912H29.609
	l10.599-13.579L50.807,62.912z M50.259,56.422l6-5.755l13.294,12.296H55.364L50.259,56.422z M76.717,36.034
	c-1.14,0.402-2.329,0.609-3.563,0.609c-5.893,0-10.686-4.794-10.686-10.686c0-1.23,0.206-2.426,0.608-3.562h13.64V36.034z
	 M23.288,22.395h36.066c-0.296,1.153-0.447,2.345-0.447,3.562c0,7.856,6.391,14.248,14.248,14.248c1.218,0,2.409-0.15,3.563-0.45
	v23.209h-1.92L56.214,45.771L48.057,53.6l-7.849-10.056L25.049,62.963h-1.762V22.395z"/>
</svg>
