<?xml version="1.0" encoding="utf-8"?>
<!-- Generator: Adobe Illustrator 16.0.0, SVG Export Plug-In . SVG Version: 6.00 Build 0)  -->
<!DOCTYPE svg PUBLIC "-//W3C//DTD SVG 1.1//EN" "http://www.w3.org/Graphics/SVG/1.1/DTD/svg11.dtd">
<svg version="1.1" id="Layer_1" xmlns="http://www.w3.org/2000/svg" xmlns:xlink="http://www.w3.org/1999/xlink" x="0px" y="0px"
	 width="100px" height="100px" viewBox="0 0 100 100" enable-background="new 0 0 100 100" xml:space="preserve">
<g>
	<g>
		<path d="M33.735,19.783c0.842,1.47,2.569,1.908,4.04,1.081l9.152-5.17v21.415c0,1.665,1.347,3.007,3.014,3.007
			c1.67,0,2.962-1.343,2.962-3.007V15.58l9.476,5.285c1.477,0.815,3.155,0.355,3.985-1.081c0.841-1.47,0.316-3.273-1.131-4.089
			l-12.33-6.949h-0.006C52.037,8.272,51.051,8,50,8c-1.146,0-2.216,0.322-3.13,0.88l-11.951,6.814
			C33.518,16.486,32.907,18.336,33.735,19.783z"/>
	</g>
	<g>
		<path d="M66.394,80.347c-0.842-1.471-2.568-1.907-4.04-1.081l-9.152,5.17V63.021c0-1.665-1.347-3.007-3.014-3.007
			c-1.67,0-2.962,1.342-2.962,3.007V84.55l-9.476-5.284c-1.477-0.815-3.156-0.355-3.985,1.081c-0.841,1.47-0.317,3.272,1.131,4.089
			l12.33,6.948h0.006c0.86,0.475,1.847,0.746,2.897,0.746c1.146,0,2.217-0.322,3.131-0.881l11.95-6.813
			C66.611,83.644,67.222,81.794,66.394,80.347z"/>
	</g>
	<g>
		<path d="M80.347,33.735c-1.471,0.842-1.907,2.569-1.081,4.04l5.17,9.152H63.021c-1.665,0-3.007,1.347-3.007,3.016
			s1.342,2.961,3.007,2.961H84.55l-5.284,9.476c-0.815,1.477-0.355,3.157,1.081,3.985c1.47,0.841,3.272,0.318,4.089-1.131
			l6.948-12.33v-0.006c0.475-0.858,0.746-1.845,0.746-2.896c0-1.146-0.322-2.218-0.881-3.131l-6.813-11.95
			C83.644,33.519,81.794,32.908,80.347,33.735z"/>
	</g>
	<g>
		<path d="M19.783,66.394c1.47-0.841,1.908-2.567,1.081-4.038l-5.17-9.154h21.415c1.665,0,3.007-1.345,3.007-3.014
			s-1.343-2.961-3.007-2.961H15.58l5.285-9.476c0.815-1.477,0.355-3.157-1.081-3.985c-1.47-0.841-3.273-0.318-4.089,1.129
			L8.746,47.227v0.005C8.272,48.091,8,49.079,8,50.128c0,1.148,0.322,2.219,0.88,3.131l6.814,11.95
			C16.486,66.611,18.336,67.222,19.783,66.394z"/>
	</g>
</g>
</svg>
