<?xml version="1.0" encoding="utf-8"?>
<!-- Generator: Adobe Illustrator 16.0.0, SVG Export Plug-In . SVG Version: 6.00 Build 0)  -->
<!DOCTYPE svg PUBLIC "-//W3C//DTD SVG 1.1//EN" "http://www.w3.org/Graphics/SVG/1.1/DTD/svg11.dtd">
<svg version="1.1" id="Layer_1" xmlns="http://www.w3.org/2000/svg" xmlns:xlink="http://www.w3.org/1999/xlink" x="0px" y="0px"
	 width="100px" height="100px" viewBox="0 0 100 100" enable-background="new 0 0 100 100" xml:space="preserve">
<g>
	<path d="M91.297,18.639l-8.663-8.664c-1.121-1.121-2.341-1.795-3.72-2.039c-0.356-0.062-0.663-0.101-0.919-0.101
		c-0.969,0-1.836,0.354-2.497,1.019l-8.613,8.664L12.456,71.795c-0.153,0.153-0.323,0.607-0.51,1.429L8.43,88.664
		c-0.103,0.308-0.153,0.611-0.153,0.866c0,0.665,0.305,1.325,0.867,1.886c0.458,0.46,1.069,0.715,1.732,0.715
		c0.255,0,0.514-0.035,0.765-0.104l15.136-3.974c0.359-0.096,0.919-0.562,1.174-0.815l54.275-54.379l8.665-8.665
		c1.069-1.068,1.631-2.139,1.631-3.108C92.52,20.221,92.087,19.429,91.297,18.639z M24.483,82.651l-9.938,2.497l2.548-9.937
		l0.511-0.613l7.492,7.491L24.483,82.651z M29.071,78.166l-7.493-7.543L68.72,23.43l7.544,7.442L29.071,78.166z M80.239,26.998
		l-7.542-7.492l5.758-5.758l7.493,7.492L80.239,26.998z"/>
</g>
</svg>
