<?xml version="1.0" encoding="utf-8"?>
<!-- Generator: Adobe Illustrator 15.1.0, SVG Export Plug-In . SVG Version: 6.00 Build 0)  -->
<!DOCTYPE svg PUBLIC "-//W3C//DTD SVG 1.1//EN" "http://www.w3.org/Graphics/SVG/1.1/DTD/svg11.dtd">
<svg version="1.1" id="Capa_1" xmlns="http://www.w3.org/2000/svg" xmlns:xlink="http://www.w3.org/1999/xlink" x="0px" y="0px"
	 width="100px" height="100px" viewBox="0 0 100 100" enable-background="new 0 0 100 100" xml:space="preserve">
<g>
	<path d="M66.253,12.652c-14.774-14.773-38.822-14.773-53.598,0c-14.773,14.78-14.773,38.826,0,53.604
		c13.156,13.152,33.651,14.567,48.418,4.295c0.31,1.471,1.018,2.871,2.165,4.016L84.755,96.08c3.139,3.132,8.205,3.132,11.322,0
		c3.134-3.131,3.134-8.197,0-11.319L74.559,63.236c-1.137-1.134-2.542-1.852-4.013-2.158C80.825,46.306,79.413,25.817,66.253,12.652
		z M59.46,59.466c-11.032,11.028-28.987,11.028-40.011,0c-11.027-11.034-11.027-28.984,0-40.016
		c11.024-11.027,28.979-11.027,40.011,0C70.491,30.48,70.491,48.432,59.46,59.466z"/>
</g>
</svg>
