<?xml version="1.0" encoding="utf-8"?>
<!-- Generator: Adobe Illustrator 15.1.0, SVG Export Plug-In . SVG Version: 6.00 Build 0)  -->
<!DOCTYPE svg PUBLIC "-//W3C//DTD SVG 1.1//EN" "http://www.w3.org/Graphics/SVG/1.1/DTD/svg11.dtd">
<svg version="1.1" id="Layer_1" xmlns="http://www.w3.org/2000/svg" xmlns:xlink="http://www.w3.org/1999/xlink" x="0px" y="0px"
	 width="100px" height="100px" viewBox="0 0 100 100" enable-background="new 0 0 100 100" xml:space="preserve">
<g>
	<g>
		<path d="M16.45,66.395c1.47-0.842,1.908-2.566,1.081-4.039l-5.17-9.152h15.965c1.665,0,3.007-1.346,3.007-3.014
			c0-1.669-1.343-2.961-3.007-2.961H12.247l5.285-9.476c0.815-1.477,0.355-3.157-1.081-3.985c-1.47-0.841-3.273-0.318-4.089,1.129
			L5.413,47.227v0.005c-0.474,0.859-0.746,1.847-0.746,2.896c0,1.147,0.322,2.22,0.88,3.131l6.814,11.95
			C13.153,66.611,15.003,67.223,16.45,66.395z"/>
	</g>
	<g>
		<path d="M83.55,33.739c-1.47,0.842-1.908,2.566-1.08,4.039l5.17,9.152H71.674c-1.665,0-3.007,1.346-3.007,3.014
			c0,1.669,1.343,2.961,3.007,2.961h16.079l-5.285,9.476c-0.814,1.478-0.355,3.157,1.081,3.985c1.47,0.841,3.272,0.318,4.089-1.129
			l6.949-12.331v-0.005c0.475-0.859,0.746-1.848,0.746-2.896c0-1.147-0.322-2.22-0.88-3.131l-6.813-11.95
			C86.847,33.522,84.997,32.911,83.55,33.739z"/>
	</g>
</g>
<g>
	<path d="M35.596,81.393c0,1.666,1.345,3.008,3.014,3.008c1.67,0,2.961-1.344,2.961-3.008V18.607c0-1.666-1.344-3.008-3.014-3.008
		c-1.669,0-2.961,1.344-2.961,3.008V81.393z"/>
	<path d="M58.429,81.393c0,1.666,1.346,3.008,3.014,3.008c1.671,0,2.962-1.344,2.962-3.008V18.607c0-1.666-1.344-3.008-3.015-3.008
		c-1.668,0-2.961,1.344-2.961,3.008V81.393z"/>
</g>
</svg>
