<?xml version="1.0" encoding="utf-8"?>
<!-- Generator: Adobe Illustrator 16.0.0, SVG Export Plug-In . SVG Version: 6.00 Build 0)  -->
<!DOCTYPE svg PUBLIC "-//W3C//DTD SVG 1.1//EN" "http://www.w3.org/Graphics/SVG/1.1/DTD/svg11.dtd">
<svg version="1.1" id="Layer_1" xmlns="http://www.w3.org/2000/svg" xmlns:xlink="http://www.w3.org/1999/xlink" x="0px" y="0px"
	 width="100px" height="100px" viewBox="0 0 100 100" enable-background="new 0 0 100 100" xml:space="preserve">
<g>
	<path fill="#030104" d="M85.742,62.725c0.634,1.394,0.019,3.035-1.374,3.666L53.915,80.232c-0.362,0.166-0.752,0.25-1.146,0.25
		c-0.273,0-0.548-0.042-0.813-0.122l-35.99-11.074c-1.461-0.451-2.281-2.001-1.833-3.46c0.449-1.462,2.002-2.29,3.461-1.833
		L52.581,74.76l29.495-13.408C83.482,60.707,85.113,61.339,85.742,62.725z M52.581,63.686L17.593,52.919
		c-1.459-0.456-3.009,0.371-3.461,1.833c-0.451,1.459,0.372,3.01,1.833,3.461l35.99,11.073c0.266,0.08,0.54,0.122,0.813,0.122
		c0.395,0,0.784-0.083,1.146-0.249l30.453-13.842c1.393-0.634,2.008-2.273,1.374-3.666c-0.632-1.387-2.26-2.01-3.666-1.374
		L52.581,63.686z M14.014,44.63c-0.058-1.163,0.617-2.237,1.689-2.691l20.212-8.518c3.978-1.678,5.872-3.771,5.872-11.135
		c0-0.85,0.39-1.655,1.061-2.179c0.669-0.526,1.542-0.711,2.369-0.509l35.821,8.826c1.235,0.305,2.108,1.415,2.108,2.688v0.421
		c0.002,8.188,0.005,13.595-10.025,17.823c-6.714,2.831-19.047,8.652-19.169,8.712c-0.371,0.178-0.777,0.266-1.183,0.266
		c-0.273,0-0.548-0.041-0.813-0.121l-35.99-11.074C14.853,46.795,14.072,45.793,14.014,44.63z M24.872,44.085l27.684,8.521
		c3.078-1.448,12.63-5.914,18.411-8.35c6.12-2.58,6.603-4.565,6.636-10.974l-30.426-7.5c-0.534,5.681-2.688,10.033-9.108,12.741
		L24.872,44.085z"/>
</g>
</svg>
