<?xml version="1.0" encoding="utf-8"?>
<!-- Generator: Adobe Illustrator 16.0.0, SVG Export Plug-In . SVG Version: 6.00 Build 0)  -->
<!DOCTYPE svg PUBLIC "-//W3C//DTD SVG 1.1//EN" "http://www.w3.org/Graphics/SVG/1.1/DTD/svg11.dtd">
<svg version="1.1" id="Layer_1" xmlns="http://www.w3.org/2000/svg" xmlns:xlink="http://www.w3.org/1999/xlink" x="0px" y="0px"
	 width="100px" height="100px" viewBox="0 0 100 100" enable-background="new 0 0 100 100" xml:space="preserve">
<g>
	<path fill="#010202" d="M74.962,91.322c-0.637,0-1.276-0.151-1.861-0.459L50,78.719L26.9,90.862
		c-1.348,0.71-2.982,0.589-4.212-0.304c-1.232-0.896-1.849-2.412-1.591-3.912l4.412-25.723L6.82,42.708
		c-1.09-1.063-1.483-2.652-1.012-4.1c0.471-1.448,1.722-2.503,3.229-2.723l25.826-3.753l11.55-23.402
		C47.087,7.364,48.478,6.5,50,6.5l0,0c1.522,0,2.913,0.864,3.587,2.23l11.549,23.402l25.827,3.753
		c1.507,0.219,2.759,1.274,3.229,2.723c0.47,1.448,0.078,3.038-1.013,4.1L74.491,60.924l4.413,25.722
		c0.258,1.501-0.359,3.018-1.591,3.913C76.616,91.064,75.791,91.322,74.962,91.322z"/>
</g>
</svg>
