<?xml version="1.0" encoding="utf-8"?>
<!-- Generator: Adobe Illustrator 16.0.0, SVG Export Plug-In . SVG Version: 6.00 Build 0)  -->
<!DOCTYPE svg PUBLIC "-//W3C//DTD SVG 1.1//EN" "http://www.w3.org/Graphics/SVG/1.1/DTD/svg11.dtd">
<svg version="1.1" id="Layer_1" xmlns="http://www.w3.org/2000/svg" xmlns:xlink="http://www.w3.org/1999/xlink" x="0px" y="0px"
	 width="100px" height="100px" viewBox="0 0 100 100" enable-background="new 0 0 100 100" xml:space="preserve">
<g opacity="0.4">
	<path fill="#010202" d="M74.962,91.322c-0.637,0-1.276-0.151-1.86-0.459L50,78.719L26.9,90.861
		c-1.348,0.711-2.982,0.59-4.212-0.303c-1.232-0.896-1.849-2.412-1.591-3.912l4.412-25.724L6.82,42.708
		c-1.09-1.063-1.483-2.652-1.012-4.1c0.471-1.448,1.722-2.503,3.229-2.723l25.826-3.753L46.413,8.73C47.087,7.364,48.478,6.5,50,6.5
		l0,0c1.521,0,2.913,0.864,3.587,2.23l11.55,23.402l25.826,3.753c1.508,0.219,2.76,1.274,3.229,2.723
		c0.471,1.448,0.078,3.038-1.012,4.1L74.491,60.924l4.413,25.723c0.258,1.5-0.359,3.018-1.592,3.912
		C76.616,91.064,75.791,91.322,74.962,91.322z M18.208,42.636l14.39,14.027c0.943,0.919,1.373,2.243,1.15,3.54L30.352,80.01
		l17.787-9.351c1.165-0.613,2.556-0.612,3.722-0.001L69.65,80.01l-3.398-19.806c-0.223-1.298,0.208-2.622,1.15-3.541l14.391-14.027
		l-19.889-2.89c-1.303-0.189-2.428-1.008-3.012-2.188L50,19.539l-8.894,18.02c-0.583,1.18-1.709,1.999-3.012,2.188L18.208,42.636z"
		/>
</g>
</svg>
