<?xml version="1.0" encoding="utf-8"?>
<!-- Generator: Adobe Illustrator 16.0.0, SVG Export Plug-In . SVG Version: 6.00 Build 0)  -->
<!DOCTYPE svg PUBLIC "-//W3C//DTD SVG 1.1//EN" "http://www.w3.org/Graphics/SVG/1.1/DTD/svg11.dtd">
<svg version="1.1" id="Layer_1" xmlns="http://www.w3.org/2000/svg" xmlns:xlink="http://www.w3.org/1999/xlink" x="0px" y="0px"
	 width="100px" height="100px" viewBox="0 0 100 100" enable-background="new 0 0 100 100" xml:space="preserve">
<g>
	<g>
		<path d="M78.118,17.499H66.823V10.16c0-1.479-1.19-2.621-2.668-2.621c-0.144,0-0.24,0.047-0.284,0.094
			c-0.051-0.046-0.146-0.094-0.192-0.094H37.131h-0.188h-0.192c-1.476,0-2.621,1.142-2.621,2.621v7.339H22.788
			c-3.241,0-5.766,2.525-5.766,5.767v4.194v5.243h5.003v53.709c0,3.243,2.477,5.719,5.72,5.719h45.418
			c3.241,0,5.766-2.476,5.766-5.719V32.703h4.956V27.46v-4.194C83.885,20.024,81.358,17.499,78.118,17.499z M39.375,12.781h22.159
			v4.718H39.375V12.781z M73.639,86.412c0,0.335-0.143,0.478-0.476,0.478H27.745c-0.333,0-0.477-0.143-0.477-0.478V32.703h46.371
			V86.412z M78.596,27.46H22.311v-4.194c0-0.333,0.144-0.524,0.477-0.524h55.331c0.335,0,0.478,0.191,0.478,0.524V27.46
			L78.596,27.46z"/>
		<rect x="60.057" y="38.85" fill="#010202" width="5.29" height="43.37"/>
		<rect x="47.855" y="38.85" fill="#010202" width="5.29" height="43.37"/>
		<rect x="35.657" y="38.85" fill="#010202" width="5.29" height="43.37"/>
	</g>
</g>
</svg>
