<?xml version="1.0" encoding="utf-8"?>
<!-- Generator: Adobe Illustrator 15.1.0, SVG Export Plug-In . SVG Version: 6.00 Build 0)  -->
<!DOCTYPE svg PUBLIC "-//W3C//DTD SVG 1.1//EN" "http://www.w3.org/Graphics/SVG/1.1/DTD/svg11.dtd">
<svg version="1.1" id="Layer_1" xmlns="http://www.w3.org/2000/svg" xmlns:xlink="http://www.w3.org/1999/xlink" x="0px" y="0px"
	 width="100px" height="100px" viewBox="0 0 100 100" enable-background="new 0 0 100 100" xml:space="preserve">
<g>
	<path fill="#231F20" d="M14.316,40.405l3.768,18.991c0.442,2.224,2.555,3.842,5,3.842h46.62l-1.509,7.261L23.911,70.48
		c-1.745,0-3.161,1.416-3.161,3.162s1.416,3.161,3.161,3.161l46.878,0.02c1.617,0,2.939-1.195,3.143-2.74l10.9-52.538l9.063-2.666
		c1.691-0.497,2.647-2.261,2.15-3.935c-0.497-1.691-2.262-2.647-3.934-2.151l-10.864,3.199c-0.975,0.294-1.71,1.012-2.059,1.893
		c-0.094,0.185-0.148,0.405-0.203,0.625l-2.28,11.03c-0.292-0.019-0.588-0.019-0.899,0.019l-56.97,5.312
		C15.878,35.148,13.819,37.685,14.316,40.405z"/>
	<circle fill="#231F20" cx="61.78" cy="86.014" r="6.323"/>
	<circle fill="#231F20" cx="31.558" cy="86.014" r="6.323"/>
</g>
</svg>
