<?xml version="1.0" encoding="UTF-8" standalone="no"?>
<svg
   xmlns:dc="http://purl.org/dc/elements/1.1/"
   xmlns:cc="http://creativecommons.org/ns#"
   xmlns:rdf="http://www.w3.org/1999/02/22-rdf-syntax-ns#"
   xmlns:svg="http://www.w3.org/2000/svg"
   xmlns="http://www.w3.org/2000/svg"
   version="1.1"
   id="svg3336"
   viewBox="0 0 100 100"
   height="100"
   width="100">
  <defs
     id="defs3338" />
  <metadata
     id="metadata3341">
    <rdf:RDF>
      <cc:Work
         rdf:about="">
        <dc:format>image/svg+xml</dc:format>
        <dc:type
           rdf:resource="http://purl.org/dc/dcmitype/StillImage" />
        <dc:title></dc:title>
      </cc:Work>
    </rdf:RDF>
  </metadata>
  <g
     transform="translate(0,-952.36212)"
     id="layer1">
    <g
       transform="translate(-288.14286,666.71926)"
       id="g3389">
      <g
         id="g3345">
        <path
           style="fill:#ffffff"
           id="path3349"
           d="m 360.01511,328.57076 c 0,-0.46263 -0.008,-0.92106 -0.0292,-1.37529 1.97964,-1.47537 3.69666,-3.32153 5.05532,-5.4345 -1.8171,0.81693 -3.76752,1.36285 -5.81803,1.59192 2.09216,-1.2878 3.69666,-3.34655 4.45517,-5.81788 -1.95882,1.18773 -4.12587,2.03792 -6.43061,2.47972 -1.84616,-2.10053 -4.48003,-3.43822 -7.39332,-3.48826 -5.59285,-0.0917 -10.12711,4.63434 -10.12711,10.55634 0,0.8418 0.0875,1.65873 0.26247,2.44631 -8.42254,-0.54173 -15.88657,-4.92604 -20.87941,-11.53567 -0.87103,1.58368 -1.3711,3.43403 -1.3711,5.41787 0,3.75089 1.78788,7.08485 4.50505,9.0519 -1.66278,-0.0749 -3.22144,-0.57918 -4.58835,-1.4045 0,0.0459 0,0.0917 0,0.13752 0,5.2429 3.49246,9.63543 8.12666,10.66061 -0.8502,0.24165 -1.74623,0.36675 -2.66729,0.36271 -0.65424,-0.004 -1.2878,-0.0751 -1.90458,-0.20855 1.2878,4.29681 5.0303,7.43497 9.46029,7.53909 -3.46744,2.87552 -7.83497,4.59254 -12.57762,4.58011 -0.81694,0 -1.62533,-0.0541 -2.41725,-0.15416 4.48438,3.07568 9.80622,4.8676 15.52821,4.8676 18.62501,0.005 28.81071,-16.20747 28.81071,-30.27289 z" />
        <path
           id="path3414"
           d="m 338.14286,286.65301 a 48.989847,48.989847 0 0 0 -48.98985,48.98985 48.989847,48.989847 0 0 0 48.98985,48.98985 48.989847,48.989847 0 0 0 48.98985,-48.98985 48.989847,48.989847 0 0 0 -48.98985,-48.98985 z m 0,3.7106 a 45.278307,45.278307 0 0 1 45.27925,45.27925 45.278307,45.278307 0 0 1 -45.27925,45.27925 45.278307,45.278307 0 0 1 -45.27925,-45.27925 45.278307,45.278307 0 0 1 45.27925,-45.27925 z"
           style="fill:#ffffff" />
      </g>
    </g>
  </g>
</svg>
