<?xml version="1.0" encoding="utf-8"?>
<!-- Generator: Adobe Illustrator 16.0.0, SVG Export Plug-In . SVG Version: 6.00 Build 0)  -->
<!DOCTYPE svg PUBLIC "-//W3C//DTD SVG 1.1//EN" "http://www.w3.org/Graphics/SVG/1.1/DTD/svg11.dtd">
<svg version="1.1" id="Layer_1" xmlns="http://www.w3.org/2000/svg" xmlns:xlink="http://www.w3.org/1999/xlink" x="0px" y="0px"
	 width="100px" height="100px" viewBox="0 0 100 100" enable-background="new 0 0 100 100" xml:space="preserve">
<path fill="#FFFFFF" d="M50,8.333C27.026,8.333,8.334,27.025,8.334,50c0,22.976,18.692,41.666,41.667,41.666
	c22.975,0,41.667-18.69,41.667-41.666C91.667,27.025,72.976,8.333,50,8.333z M21.089,66.138c-0.377,0.998-1.12,1.711-2.037,1.955
	c-0.105,0.028-0.212,0.042-0.316,0.042c-0.542,0-1.037-0.362-1.183-0.91c-0.174-0.654,0.214-1.324,0.868-1.499
	c0.142-0.037,0.282-0.207,0.375-0.454c0.147-0.391,0.156-0.9,0.022-1.401c-0.261-0.98-0.936-1.498-1.268-1.411
	c-0.654,0.175-1.325-0.215-1.499-0.867c-0.174-0.654,0.214-1.325,0.869-1.499c1.794-0.479,3.667,0.905,4.265,3.147
	C21.452,64.238,21.417,65.267,21.089,66.138z M22.149,34.113c-0.921,0-1.707-0.296-2.289-0.878
	c-0.915-0.916-1.123-2.334-0.584-3.995c0.209-0.643,0.9-0.996,1.543-0.787c0.644,0.208,0.996,0.899,0.787,1.543
	c-0.257,0.792-0.192,1.328-0.014,1.506c0.452,0.452,2.55,0.012,4.623-2.061c2.073-2.073,2.512-4.171,2.061-4.623
	c-0.237-0.237-1.014-0.238-2.038,0.219c-0.618,0.276-1.342-0.001-1.617-0.619s0.001-1.342,0.619-1.618
	c1.969-0.879,3.707-0.774,4.768,0.286c0.916,0.916,1.124,2.334,0.585,3.995c-0.448,1.38-1.387,2.833-2.646,4.092
	c-1.258,1.258-2.711,2.197-4.092,2.646C23.25,34.015,22.678,34.113,22.149,34.113z M27.212,64.752
	c-0.076,0.014-0.152,0.021-0.227,0.021c-0.578,0-1.092-0.41-1.202-1c-0.712-3.807,1.035-7.715,4.345-9.725
	c0.579-0.351,1.332-0.166,1.683,0.412c0.351,0.578,0.167,1.331-0.411,1.683c-2.445,1.483-3.735,4.37-3.209,7.18
	C28.315,63.987,27.877,64.627,27.212,64.752z M39.845,70.053c-1.501,0.911-3.183,1.363-4.861,1.363
	c-1.926,0-3.845-0.595-5.479-1.774c-0.548-0.396-0.672-1.16-0.276-1.71c0.396-0.548,1.162-0.672,1.709-0.275
	c2.259,1.629,5.256,1.748,7.636,0.303c3.258-1.978,4.3-6.237,2.322-9.495c-0.845-1.394-2.161-2.446-3.703-2.964
	c-0.641-0.216-0.986-0.91-0.771-1.552c0.215-0.641,0.909-0.986,1.551-0.771c2.09,0.702,3.871,2.128,5.017,4.015
	C45.668,61.604,44.257,67.375,39.845,70.053z M52.771,87.529c-0.225,0.175-0.489,0.261-0.753,0.261
	c-0.365,0-0.725-0.161-0.966-0.471c-1.235-1.577-3.523-1.855-5.101-0.62c-0.533,0.417-1.303,0.322-1.719-0.21
	c-0.417-0.532-0.323-1.302,0.209-1.719c2.641-2.068,6.471-1.602,8.54,1.039C53.398,86.343,53.304,87.111,52.771,87.529z
	 M50.789,53.144c3.264,3.264,8.573,3.264,11.836,0c0.479-0.478,1.255-0.478,1.732,0c0.479,0.478,0.479,1.254,0,1.732
	c-2.109,2.108-4.88,3.163-7.65,3.163c-2.77,0-5.54-1.055-7.649-3.163c-4.218-4.219-4.218-11.083,0-15.301
	c4.219-4.219,11.082-4.219,15.3,0c0.479,0.479,0.479,1.253,0,1.732c-0.478,0.479-1.254,0.479-1.732,0
	c-3.263-3.264-8.572-3.264-11.836,0C47.526,44.57,47.526,49.88,50.789,53.144z M67.355,49.147c-0.107,0.593-0.624,1.008-1.205,1.008
	c-0.071,0-0.145-0.005-0.218-0.02c-0.666-0.12-1.108-0.756-0.988-1.421c0.088-0.49,0.132-0.991,0.132-1.489
	c0-0.676,0.549-1.224,1.226-1.224c0.676,0,1.225,0.548,1.225,1.224C67.526,47.868,67.469,48.516,67.355,49.147z M77.312,77.961
	c-1.049,1.048-2.373,1.725-3.376,1.725c-0.368,0-0.643-0.089-0.818-0.265c-0.277-0.277-0.341-0.824-0.175-1.501
	c0.22-0.892,0.815-1.873,1.635-2.692c1.048-1.046,2.373-1.724,3.375-1.724c0.368,0,0.644,0.089,0.819,0.264
	C79.402,74.4,78.903,76.369,77.312,77.961z M75.236,47.007c-0.349,0.078-0.697,0.115-1.042,0.115c-2.378,0-4.563-1.774-5.137-4.348
	c-0.314-1.407-0.104-2.848,0.591-4.058c0.715-1.245,1.854-2.096,3.206-2.397c1.354-0.301,2.746-0.014,3.923,0.811
	c0.554,0.387,0.688,1.151,0.301,1.706c-0.389,0.554-1.152,0.688-1.705,0.3c-0.607-0.424-1.313-0.576-1.984-0.425
	c-0.674,0.149-1.248,0.586-1.616,1.227c-0.389,0.678-0.505,1.496-0.324,2.305c0.361,1.628,1.823,2.694,3.256,2.375
	c1.03-0.229,1.81-1.132,1.985-2.3c0.101-0.669,0.726-1.128,1.394-1.028c0.669,0.1,1.129,0.725,1.028,1.394
	C78.782,44.857,77.263,46.556,75.236,47.007z"/>
</svg>
