<?xml version="1.0" encoding="utf-8"?>
<!-- Generator: Adobe Illustrator 15.1.0, SVG Export Plug-In . SVG Version: 6.00 Build 0)  -->
<!DOCTYPE svg PUBLIC "-//W3C//DTD SVG 1.1//EN" "http://www.w3.org/Graphics/SVG/1.1/DTD/svg11.dtd">
<svg version="1.1" id="Layer_1" xmlns="http://www.w3.org/2000/svg" xmlns:xlink="http://www.w3.org/1999/xlink" x="0px" y="0px"
	 width="100px" height="100px" viewBox="0 0 100 100" enable-background="new 0 0 100 100" xml:space="preserve">
<path d="M68.027,64.479h-3.434l0.014-1.992c0-0.889,0.732-1.614,1.619-1.614h0.219c0.893,0,1.623,0.726,1.623,1.614L68.027,64.479z
	 M55.15,60.204c-0.871,0-1.584,0.589-1.584,1.302v9.698c0,0.72,0.713,1.299,1.584,1.299c0.877,0,1.59-0.579,1.59-1.299v-9.698
	C56.74,60.793,56.027,60.204,55.15,60.204 M76.063,54.782v18.446c0,4.424-3.838,8.045-8.527,8.045h-35.07
	c-4.689,0-8.527-3.621-8.527-8.045V54.782c0-4.425,3.838-8.046,8.527-8.046h35.07C72.225,46.736,76.063,50.357,76.063,54.782
	 M34.804,75.233L34.801,55.8l4.347,0.005v-2.881l-11.586-0.019v2.831l3.614,0.01v19.487H34.804z M47.838,58.695h-3.626v10.377
	c0,1.504,0.092,2.251-0.005,2.516c-0.294,0.806-1.621,1.66-2.137,0.088c-0.087-0.272-0.01-1.104-0.012-2.531l-0.015-10.449h-3.604
	l0.012,10.284c0.002,1.577-0.036,2.75,0.012,3.288c0.09,0.941,0.056,2.041,0.932,2.669c1.628,1.173,4.755-0.175,5.536-1.854
	l-0.005,2.142l2.911,0.005V58.695z M59.432,70.576l-0.008-8.635c-0.002-3.29-2.465-5.261-5.809-2.599l0.018-6.419l-3.622,0.003
	l-0.02,22.163l2.977-0.046l0.271-1.378C57.047,77.156,59.436,74.767,59.432,70.576 M70.773,69.433l-2.717,0.014
	c0,0.107-0.006,0.234-0.008,0.368v1.519c0,0.811-0.672,1.472-1.484,1.472h-0.533c-0.816,0-1.486-0.661-1.486-1.472v-0.171v-1.667
	v-2.151h6.225v-2.341c0-1.713-0.047-3.424-0.188-4.404c-0.445-3.096-4.789-3.585-6.984-2.001c-0.689,0.497-1.217,1.159-1.523,2.047
	c-0.307,0.889-0.461,2.105-0.461,3.65v5.151C61.613,78.006,72.016,76.796,70.773,69.433 M56.832,41.477
	c0.188,0.453,0.477,0.821,0.871,1.099c0.393,0.276,0.889,0.414,1.484,0.414c0.521,0,0.986-0.143,1.391-0.435
	c0.4-0.288,0.738-0.723,1.014-1.298l-0.068,1.421h4.043v-17.18h-3.184v13.369c0,0.725-0.596,1.318-1.324,1.318
	c-0.727,0-1.322-0.594-1.322-1.318V25.498h-3.32v11.587c0,1.476,0.027,2.46,0.07,2.958C56.533,40.54,56.646,41.016,56.832,41.477
	 M44.589,31.773c0-1.65,0.139-2.938,0.414-3.868c0.272-0.925,0.767-1.667,1.485-2.229c0.713-0.563,1.628-0.844,2.737-0.844
	c0.935,0,1.736,0.182,2.406,0.542c0.672,0.359,1.189,0.83,1.549,1.409c0.367,0.58,0.613,1.178,0.746,1.789
	c0.137,0.62,0.203,1.555,0.203,2.813v4.347c0,1.593-0.064,2.764-0.188,3.509c-0.121,0.747-0.389,1.438-0.797,2.088
	c-0.406,0.641-0.924,1.121-1.557,1.428c-0.635,0.309-1.365,0.461-2.19,0.461c-0.923,0-1.696-0.126-2.339-0.391
	c-0.64-0.267-1.134-0.663-1.489-1.191c-0.353-0.531-0.606-1.174-0.757-1.93c-0.153-0.749-0.224-1.881-0.224-3.386V31.773z
	 M47.755,38.596c0,0.975,0.723,1.767,1.605,1.767c0.882,0,1.604-0.792,1.604-1.767v-9.144c0-0.972-0.722-1.767-1.604-1.767
	c-0.883,0-1.605,0.795-1.605,1.767V38.596z M36.573,43.216h3.811l0.005-13.178l4.505-11.288h-4.169l-2.395,8.385l-2.429-8.408
	h-4.127l4.794,11.318L36.573,43.216z"/>
</svg>
