<?xml version="1.0" encoding="utf-8"?>
<!-- Generator: Adobe Illustrator 15.1.0, SVG Export Plug-In . SVG Version: 6.00 Build 0)  -->
<!DOCTYPE svg PUBLIC "-//W3C//DTD SVG 1.1//EN" "http://www.w3.org/Graphics/SVG/1.1/DTD/svg11.dtd">
<svg version="1.1" id="Layer_1" xmlns="http://www.w3.org/2000/svg" xmlns:xlink="http://www.w3.org/1999/xlink" x="0px" y="0px"
	 width="100px" height="100px" viewBox="0 0 100 100" enable-background="new 0 0 100 100" xml:space="preserve">
<g>
	<path d="M86.292,84.5H16.175c-0.807,0-1.565-0.39-2.034-1.047c-0.469-0.656-0.592-1.499-0.331-2.263
		c3.404-9.94,5.129-20.266,5.129-30.69c0-10.426-1.726-20.752-5.129-30.69c-0.261-0.764-0.138-1.607,0.331-2.264
		s1.227-1.046,2.034-1.046h70.117c0.808,0,1.564,0.39,2.034,1.046c0.469,0.657,0.593,1.5,0.331,2.263
		c-3.403,9.941-5.129,20.267-5.129,30.69c0,10.425,1.726,20.75,5.129,30.69c0.262,0.764,0.138,1.606-0.331,2.263
		C87.856,84.11,87.1,84.5,86.292,84.5z M19.61,79.5h63.246c-2.873-9.438-4.328-19.177-4.328-29s1.455-19.563,4.328-29H19.61
		c2.874,9.436,4.329,19.175,4.329,29C23.939,60.324,22.484,70.063,19.61,79.5z"/>
</g>
<path d="M63.22,34.183c-0.285-0.551-0.7-1.042-1.229-1.457c-0.491-0.39-1.084-0.703-1.76-0.931
	c-1.151-0.391-2.596-0.446-3.921-0.146c-0.584,0.131-1.162,0.338-1.721,0.617c-0.539,0.271-1.074,0.62-1.598,1.045
	c-0.507,0.418-0.988,0.925-1.436,1.515c-0.429,0.578-0.81,1.227-1.133,1.93c-0.328,0.712-0.596,1.516-0.794,2.38
	c-0.149,0.63-0.271,1.237-0.367,1.818c-0.097,0.577-0.176,1.151-0.247,1.747c-0.061,0.568-0.115,1.142-0.156,1.721
	c-0.009,0.125-0.017,0.25-0.025,0.376c-0.487,0.085-0.903,0.195-1.262,0.335c-0.462,0.176-0.837,0.395-1.151,0.672
	c-0.503,0.45-0.781,1.046-0.781,1.678c0,0.3,0.062,0.592,0.186,0.871l0.637,1.41l1.454-0.534c0.135-0.049,0.376-0.114,0.777-0.15
	c-0.014,1.338-0.033,2.636-0.061,3.895c-0.031,1.761-0.103,3.423-0.213,4.944c-0.098,1.461-0.249,2.83-0.447,4.069
	c-0.183,1.136-0.432,2.106-0.741,2.883c-0.27,0.672-0.569,1.154-0.919,1.478c-0.257,0.238-0.575,0.289-0.797,0.289
	c-0.14,0-0.286-0.02-0.434-0.058c-0.137-0.035-0.255-0.085-0.406-0.176c-0.117-0.067-0.238-0.166-0.37-0.306
	c-0.125-0.128-0.248-0.301-0.366-0.512l-0.475-0.857h-0.979c-0.444,0-0.871,0.088-1.198,0.239c-0.355,0.146-0.674,0.35-0.943,0.601
	c-0.282,0.258-0.511,0.568-0.691,0.942c-0.17,0.374-0.257,0.764-0.257,1.158c0,0.626,0.195,1.221,0.587,1.779
	c0.314,0.433,0.727,0.806,1.227,1.109c0.449,0.271,0.958,0.48,1.562,0.641c0.564,0.146,1.176,0.219,1.816,0.219
	c0.766,0,1.531-0.127,2.263-0.372c0.783-0.251,1.521-0.668,2.266-1.281c0.672-0.566,1.303-1.3,1.875-2.182
	c0.555-0.863,1.054-1.93,1.486-3.179c0.266-0.79,0.498-1.656,0.691-2.576c0.186-0.897,0.353-1.861,0.495-2.87
	c0.14-1.011,0.256-2.034,0.348-3.041c0.092-1.027,0.169-2.036,0.236-3.043c0.061-0.994,0.112-1.954,0.152-2.881
	c0.013-0.282,0.023-0.558,0.035-0.828c0.031,0.003,0.063,0.005,0.095,0.008c1.729,0.152,2.578,0.103,3.307-0.172
	c0.87-0.34,1.411-1.152,1.411-2.119c0-0.301-0.053-0.631-0.168-1.042l-0.382-1.35l-1.395,0.148
	c-0.175,0.019-0.387,0.036-0.634,0.054c-0.232,0.017-0.478,0.024-0.722,0.024l-1.359-0.019c0.017-0.413,0.035-0.827,0.056-1.247
	c0.036-0.929,0.105-1.835,0.206-2.702c0.088-0.801,0.225-1.569,0.408-2.288c0.154-0.613,0.362-1.148,0.617-1.585
	c0.211-0.358,0.445-0.612,0.74-0.8c0.353-0.229,0.858-0.291,1.285-0.184c0.082,0.022,0.137,0.053,0.147,0.075
	c0,0.075-0.009,0.135-0.038,0.233c-0.041,0.153-0.113,0.329-0.201,0.533l-0.18,0.838l0.429,1.16l0.636,0.286
	c0.547,0.246,1.103,0.371,1.65,0.371c0.427,0,0.842-0.077,1.23-0.227c0.405-0.156,0.763-0.382,1.108-0.707
	c0.324-0.32,0.579-0.704,0.725-1.08c0.178-0.42,0.265-0.874,0.265-1.388C63.675,35.357,63.52,34.745,63.22,34.183z"/>
</svg>
