<?xml version="1.0" standalone="no"?>
<!DOCTYPE svg PUBLIC "-//W3C//DTD SVG 20010904//EN"
 "http://www.w3.org/TR/2001/REC-SVG-20010904/DTD/svg10.dtd">
<svg version="1.0" xmlns="http://www.w3.org/2000/svg"
 width="700.000000pt" height="700.000000pt" viewBox="0 0 700.000000 700.000000"
 preserveAspectRatio="xMidYMid meet">
<metadata>
Created by potrace 1.11, written by Peter Selinger 2001-2013
</metadata>
<g transform="translate(0.000000,700.000000) scale(0.100000,-0.100000)"
fill="#000000" stroke="none">
<path d="M1099 5839 c-76 -12 -139 -88 -139 -166 0 -21 20 -101 44 -178 115
-361 218 -805 251 -1080 3 -27 8 -57 10 -65 2 -8 6 -42 10 -75 3 -33 7 -71 10
-85 3 -22 12 -109 21 -225 18 -228 22 -575 10 -825 -10 -201 -10 -190 -32
-405 -5 -49 -41 -305 -49 -355 -6 -32 -54 -287 -61 -320 -32 -155 -108 -433
-170 -625 -54 -166 -56 -219 -9 -280 57 -75 -180 -69 2585 -69 1367 0 2497 3
2512 7 35 9 85 52 104 90 25 48 19 112 -20 232 -79 236 -147 498 -201 768 -42
214 -73 417 -91 602 -3 39 -8 77 -9 85 -27 146 -27 987 0 1190 2 19 7 62 10
95 8 86 15 142 25 205 5 30 12 80 15 110 4 30 10 73 15 95 5 22 12 60 15 85 4
24 8 47 10 50 2 3 6 25 10 49 21 140 102 451 195 751 40 127 47 162 41 195
-13 68 -47 112 -106 136 -24 10 -564 13 -2500 13 -1359 1 -2486 -1 -2506 -5z
m4696 -359 c-61 -196 -162 -619 -190 -800 -3 -19 -10 -57 -15 -85 -6 -27 -12
-68 -15 -90 -2 -21 -9 -75 -15 -120 -14 -108 -18 -140 -25 -205 -12 -115 -14
-138 -20 -235 -4 -55 -8 -127 -11 -160 -5 -78 -5 -575 0 -640 3 -27 7 -98 11
-156 3 -58 7 -116 9 -130 3 -13 7 -62 11 -109 3 -47 8 -94 10 -105 2 -11 7
-42 10 -70 11 -87 14 -110 30 -211 38 -235 112 -571 176 -794 17 -58 32 -112
34 -120 4 -13 -244 -15 -2202 -15 -1666 0 -2207 3 -2210 12 -2 6 9 58 26 115
73 251 138 547 186 848 2 14 7 48 10 75 4 28 8 61 10 75 16 108 20 144 30 275
4 44 8 91 10 104 23 140 22 896 0 1066 -2 17 -6 59 -9 95 -3 36 -7 81 -10 100
-3 19 -8 62 -11 95 -6 62 -22 178 -31 230 -34 199 -48 274 -65 355 -11 52 -23
106 -25 120 -9 44 -54 221 -90 347 -19 68 -34 129 -34 135 0 10 444 13 2210
13 1960 0 2209 -2 2205 -15z"/>
<path d="M3985 4793 c-138 -17 -305 -125 -394 -257 -81 -120 -135 -296 -157
-516 -4 -36 -8 -72 -10 -80 -1 -8 -3 -28 -3 -45 -1 -28 -5 -31 -62 -48 -148
-43 -195 -137 -135 -269 14 -32 27 -58 28 -58 2 0 32 9 66 20 35 11 70 20 78
20 11 0 13 -32 9 -192 -15 -566 -44 -798 -121 -950 -28 -56 -57 -78 -102 -78
-48 0 -69 14 -108 76 l-35 55 -57 -2 c-127 -5 -222 -94 -222 -207 0 -143 146
-253 345 -258 44 -1 99 4 125 12 25 7 45 13 45 12 0 -7 61 22 105 50 130 82
227 222 294 422 19 58 37 119 40 135 28 140 50 282 61 408 4 34 8 76 10 92 2
17 7 80 10 140 4 61 8 133 10 160 2 28 4 67 4 87 l1 37 83 -3 c92 -4 166 11
198 40 46 42 65 109 49 174 -25 100 -32 120 -40 115 -5 -3 -70 -8 -144 -12
l-135 -6 4 79 c21 386 79 544 201 544 38 0 41 -8 20 -66 -15 -44 -14 -55 7
-106 14 -33 22 -39 79 -56 114 -35 201 -13 271 69 128 149 15 387 -210 448
-45 12 -158 20 -208 14z"/>
</g>
</svg>
